/* XPM */
static char *_e46bc1c2ee5425d913d281a0d027256luolQdR5Pgsd31j7[] = {
/* columns rows colors chars-per-pixel */
"64 64 154 2 ",
"   c #0F7B9F",
".  c #147D9E",
"X  c #0774A7",
"o  c #0A77A5",
"O  c #0D79A2",
"+  c #0573AA",
"@  c #127DA1",
"#  c #187FA0",
"$  c #16819F",
"%  c #1B829F",
"&  c #20839E",
"*  c #1583A2",
"=  c #1B84A1",
"-  c #1988A7",
";  c #1586AD",
":  c #1688A9",
">  c #1C8CAC",
",  c #1E90AE",
"<  c #1A87B1",
"1  c #1B8AB1",
"2  c #1E91B0",
"3  c #2287A1",
"4  c #268AA4",
"5  c #2C8DA5",
"6  c #218FAE",
"7  c #2D8FA8",
"8  c #2391AF",
"9  c #2E91A9",
"0  c #3292AA",
"q  c #3897AD",
"w  c #3898AF",
"e  c #228EB1",
"r  c #2593B2",
"t  c #2B96B2",
"y  c #2F98B2",
"u  c #3097B2",
"i  c #349AB3",
"p  c #3D9DB3",
"a  c #429EB3",
"s  c #44A2B6",
"d  c #4AA4B6",
"f  c #45A2B8",
"g  c #4AA5B9",
"h  c #4FA8BA",
"j  c #50A7BA",
"k  c #54ABBC",
"l  c #59AEBE",
"z  c #5EB0BF",
"x  c #62AFBE",
"c  c #6DB2B5",
"v  c #65B1BE",
"b  c #68B1BA",
"n  c #70B5B7",
"m  c #70B5B9",
"M  c #7BB7BE",
"N  c #7DB9BF",
"B  c #5CAFC2",
"V  c #5EB2C1",
"C  c #64B5C3",
"Z  c #6BB6C5",
"A  c #65B8C5",
"S  c #6DB9C6",
"D  c #6FB7C8",
"F  c #65B9CA",
"G  c #6DBCC8",
"H  c #71BAC7",
"J  c #7EBDC4",
"K  c #71B7C9",
"L  c #74BAC9",
"P  c #7ABDCB",
"I  c #63BBD5",
"U  c #6BBDD2",
"Y  c #63BED9",
"T  c #76C3CE",
"R  c #7BC4CE",
"E  c #65C1DF",
"W  c #75C1D4",
"Q  c #7BC6D2",
"!  c #7CC8D1",
"~  c #63C3E6",
"^  c #70C5E1",
"/  c #83BABF",
"(  c #85BDC2",
")  c #81BFCE",
"_  c #82BFD1",
"`  c #86C0C5",
"'  c #88C2C6",
"]  c #83C1CD",
"[  c #8AC4C9",
"{  c #86C9CC",
"}  c #8DC9CD",
"|  c #93C6CC",
" . c #94C9CE",
".. c #82C4D2",
"X. c #88C4D1",
"o. c #80CBD3",
"O. c #8BCED1",
"+. c #8BCDDB",
"@. c #92CCD2",
"#. c #9CCCD4",
"$. c #91CFDD",
"%. c #8ED2D4",
"&. c #8AD3DA",
"*. c #8FD8DD",
"=. c #91D3D5",
"-. c #93D6D9",
";. c #9ED4DF",
":. c #95D8DB",
">. c #91D9DE",
",. c #96DADC",
"<. c #97DBDD",
"1. c #98DCDE",
"2. c #99DDDF",
"3. c #A3D2D4",
"4. c #A3D1D6",
"5. c #A7D3D8",
"6. c #A9D3D9",
"7. c #A9D5D9",
"8. c #A9D7D9",
"9. c #ACD4D9",
"0. c #ACD5D9",
"q. c #AED5D9",
"w. c #AED7DA",
"e. c #AFD8DA",
"r. c #AFD9DC",
"t. c #B1D6DA",
"y. c #B2D8DA",
"u. c #B4DADB",
"i. c #B3DADC",
"p. c #B5DADD",
"a. c #95D3E4",
"s. c #99D3E2",
"d. c #94DBE0",
"f. c #96DDE2",
"g. c #96DEE2",
"h. c #9ADEE0",
"j. c #9BDFE1",
"k. c #98DFE3",
"l. c #95D4E9",
"z. c #9AE0E2",
"x. c #9CE1E3",
"c. c #99E0E4",
"v. c #9AE1E4",
"b. c #9BE2E5",
"n. c #9DE3E6",
"m. c #9EE4E7",
"M. c #9FE5E7",
"N. c #9FE5E8",
"B. c #9FF4F5",
"V. c #A0E6E8",
"C. c #A1E6E9",
"Z. c #A3E8EA",
"A. c #A3E9EB",
"S. c #A4E9EB",
/* pixels */
"B.B.B.B.B.B.B.B.B.B.B.B.B.B.B.B.B.B.B.B.B.B.B.B.B.B.B.B.B.B.B.B.B.B.B.B.B.B.B.B.B.B.B.B.B.B.B.B.B.B.B.B.B.B.B.B.B.B.B.B.B.B.B.B.",
"B.B.B.B.B.B.B.B.B.B.B.B.B.B.B.B.B.B.B.B.B.B.B.B.B.B.B.B.B.B.B.B.B.B.B.B.B.B.B.B.B.B.B.B.B.B.B.B.B.B.B.B.B.B.B.B.B.B.B.B.B.B.B.B.",
"B.B.B.B.B.B.B.B.B.B.B.B.B.B.B.B.B.B.B.B.B.B.B.B.B.B.B.B.B.B.B.B.B.B.B.B.B.B.B.B.B.B.B.B.B.B.B.B.B.B.B.B.B.B.B.B.B.B.B.B.S.S.S.S.",
"S.S.S.S.S.S.S.S.S.S.S.S.S.S.S.S.S.S.S.B.B.B.B.B.B.B.B.B.B.B.B.B.B.S.S.S.S.S.S.S.S.S.S.S.S.S.S.S.S.S.S.S.S.S.S.S.S.S.S.S.S.S.S.S.",
"Z.S.Z.S.Z.S.S.S.Z.S.Z.S.Z.S.S.S.Z.S.A.S.Z.S.S.S.Z.S.A.S.Z.S.S.S.Z.S.A.S.Z.S.S.S.S.S.S.S.V.S.S.S.Z.S.A.S.Z.S.S.S.Z.S.A.S.Z.S.S.S.",
"S.S.S.S.S.S.S.S.S.S.S.S.S.S.S.S.S.S.S.S.S.S.S.S.S.S.S.S.S.S.S.S.S.S.S.S.S.S.S.S.S.S.S.S.S.S.S.S.S.S.S.S.S.S.S.S.S.S.S.S.S.S.S.S.",
"S.S.S.S.S.S.S.S.S.S.S.S.S.S.S.S.S.S.S.S.S.S.S.S.S.S.S.S.S.S.S.S.S.S.S.S.S.S.S.S.S.S.S.S.S.S.S.S.S.S.S.S.S.S.S.S.S.S.S.S.S.S.S.S.",
"S.S.S.S.S.S.S.S.S.S.S.S.S.S.S.S.S.S.S.S.S.S.S.S.S.S.S.S.S.S.S.S.S.S.S.S.S.S.S.S.S.S.S.S.S.S.A.A.S.S.S.S.S.S.S.S.S.S.S.S.S.S.S.S.",
"Z.Z.Z.Z.Z.S.Z.S.Z.S.Z.S.Z.S.A.S.V.S.Z.Z.A.A.Z.Z.Z.V.Z.A.Z.V.Z.Z.Z.Z.Z.V.V.V.V.V.N.N.V.N.V.V.V.N.N.N.N.x.m.m.x.M.N.N.N.b.M.b.M.b.",
"N.Z.M.Z.V.V.M.N.N.N.M.N.M.x.M.N.M.M.M.x.x.N.b.M.N.b.M.x.b.b.b.b.z.b.b.b.z.b.b.b.b.b.k.b.j.j.j.j.k.k.b.b.k.b.j.1.f.f.<.b.f.f.f.f.",
"b.x.x.x.x.z.z.x.x.x.x.x.j.z.j.z.z.j.z.z.b.1.j.z.1.j.1.z.z.1.z.j.1.j.<.1.j.1.j.>.>.>.>.d.>.>.>.>.*.*.*.*.*.*.:.*.>.>.*.*.<.<.1.:.",
"1.1.1.1.1.1.<.1.1.1.<.1.<.<.<.<.<.<.<.<.<.<.<.:.:.<.1.:.:.1.-.1.:.:.:.1.:.:.:.<.:.:.:.:.:.-.:.:.-.<.-.-.<.-.-.:.-.-.-.-.-.-.-.-.",
":.:.-.-.-.-.-.<.-.-.-.-.-.-.-.-.-.-.-.=.-.-.%.-.-.%.-.%.%.*.-.%.-.-.=.=.=.%.=.%.=.=.%.=.%.%.=.=.%.%.%.=.%.%.%.%.%.%.%.%.%.%.%.%.",
"-.%.%.=.-.%.%.%.%.%.%.%.%.%.%.%.%.%.%.%.%.%.%.%.%.%.%.%.%.%.} %.} %.%.=.=.=.=.=.=.=.=.-.=.=.=.=.=.=.%.=.%.%.@.O.O.O.O.O.} O.O.O.",
" .=. .%.=.}  .=.! ! ! ! ! R ! ! T ! ! ! ! T T T R T ! R R R Q ! } } @.8.8.8.e.8.8.6.8.8.6.8.8.6.8.0.8.8.8.8.#.[ [ } } } } } { { ",
"} } } } } } } } } } } } } } } } [ T T T T T T T T T T T R [ [ [ { } #.5.y.r.e.e.t.i.p.p.u.p.p.p.u.y.p.y.u.u.u.3.[ [ [ [ ' [ { ` ",
"} [ [ [ [ [ [ [ [ [ [ ' [ [ [ [ ' ' ' [ [ ' ' ' [ [ ' R ' ' [ [ ' [ | 3.0.6.0.0.8.0.t.y.t.t.0.0.0.t.0.8.e.8.3. .` ' ` ` ` ` ' ' ",
"' ` [ [ ` ' ' ` ' ' ' ' ` ' ' ' ` ` ' ' ' ' ` ' ( ( ( ` ( ( ( ( ( [ | #.#.#.@. .#.#.#.#.#.#.#.#.#.#.#.#.#. . .` J J ` / / ( / / ",
"A A A A A ` ( ( ( ( ( ( ( ( ( ( / ( ( ( ' / / / ( ( ( ( ( ( ( ( ( ( ] [ ] ] R R P P L L P P H G Z D S S S S S A C D ( / N / / / ",
"z V z V z V v z V z C z z V / / / / / / / / / / / / / / M m D m M B v Z L C C V V V V V V C V B z l B l l z k z l l l k z l l z ",
"l l l l z l l l l l l k l k l l l k k k l l k l l l k x b b x x l k k l l k k l l k k k B h k k j k k k h k h k k h k h h k k j ",
"k k k k k k k h k v B C C C B C B k B k k k k z B B v B C x l k j j h h h h h h h h h h h h h h h h j g h h g h h h h g h g g h ",
"h h h g h h h h k B S L K L L L L K C C V v v C L L L K K C B g g g g g g g g g g f g g f f f p d g g g g g g g g d f g g f d d ",
"g g g g g g g g j x L ) ) ) ] ] X.] P H H H L L P L L K K Z B h s g s f s f d s d f d s f f f B f s s s s s s s s s s s s s s s ",
"s s s s f f f f f h T ! ...._ _ ) ) P P P P L L L K D D Z C B g s s p f p p f p a a a f p f p a i f f f i f i f p p p p f p f p ",
"s p s s f f p s f k C H D Z K K P P L L P P L L D C C B B B f f p p p p p p p p p p p p p i p p f f i i i i f f p p p p i p i p ",
"p s i p p p i f i B h j h B B V C B D D D D D Z B g B B h f f p i p i i i p i i i i i i i i i i y y i i i i i i i p i i i i i i ",
"i i i i p i i i i i p p p p p f f B g a f f f p u u u r i i i i i i i i y y i y u u u i y i i i y y y i i i y y y y y i i i i i ",
"i i i i i i y y y u u y y y u u y y u u u t u u y y t u u t t u t t u t t r t t r r t t r r r r r r y y y y y y y y y y y i y y ",
"y y y y y y y y y y y y y y t t y t u t u t t t y r t t t t t t t t t r r r e e 2 r e e e e r 1 2 2 2 r r r r y r y r r r r r r ",
"y t t t r t y y t t t r r t t t r r t t t t t t t r t r t t r t t e r e 2 1 1 1 < < < < 1 1 < < 1 1 1 2 2 r r r r r r r y r t r ",
"r t r r r t r r r r r r r e r e e r r r 6 r 6 e e 6 6 r 6 8 6 6 r r > 2 1 1 < < ; ; ; ; < < < ; ; ; < 1 2 2 r r r r r r r r r 2 ",
"8 8 8 8 8 8 8 r 6 6 6 6 6 6 6 6 8 , , , , , , , > r , 2 > > > > > 1 > > > : 1 ; ; ; ; ; ; ; ; ; ; ; ; ; 1 2 2 2 2 2 , , 2 2 2 2 ",
"> 6 > 6 6 > 6 6 6 > > > 6 > > > - - , , - , - : > > - > > > > : > > > : ; : : : : : : : : : ; ; ; ; ; ; : : : 2 , : , : > > 2 : ",
"= - - - = - - - - - - - - - - - - - - - - - * : - - - - - - - - * - - : * : > - : : : * : : : : : : ; * : : : * : - - - : : : : ",
"= = - = = - * = = = - = = = - = - % $ - % % * * $ $ * * - * * * * * * * * * * * * * * * * * * * * * * * * * * * - : * : * * * : ",
"* $ * % % % $ = * * % $ . = . 3 $ $ * $ * *   * $ * * * # * @ *   * * * * * * * * * * * * * * * * * * *   * * * * * $ * * * * $ ",
". % $ $ . . $ $ . $ $ $ . . . . $ $ $ $ * * *   $ * * $ @ . @ @   *   * * O * O   * o *   * O   o * * * *   * * $ * $ * $ * $ * ",
". . $ . . . . . . . . . . . . . *   * *                   O   O O O O O O   O O     O     X O O * *     X *         * X X * o $ ",
"O . O O O O o @ O O O O O . . #     o       o     X     O O o o o o O o O o O o X * o o o O O o X X X X o o X X X X o O o o o X ",
". o o o O o o o + O O o X X O o   X o O o O O o o o   o o   O O     X   O   O O   O   o O O O O o O o o o O O o X   o o + o o X ",
". o o O O O O O O o o o O o o o   X O O o o o   o o O .     @ @ *               O       O O O O O O O O O O O O o o o o o o X O ",
"o o o @ O o # O @ @ @ @ @ o @ X   O   O O @   O O @ @ #   @ . # . .   $ $ . $ $ . .     . . $ * $ $ $ * * . @ O * O O O @ * * % ",
". % # # # # # # # # # # @ . # @ O   * . . . $ . # # # . . . . . . $ $ $ % $ % % . % $ $ $ % $ % % $ % % % * $ = *   * $ * = % = ",
"5 # 3 # # # & & # & & & # . = . . % & & % % % % & = = % & = % % = % % % 3 % % % 3 = % % 3 % % = % = % 3 = = = % = = = - = = = 3 ",
"& # 5 # 4 & & 5 4 & & & & 4 & 4 4 & 4 4 4 4 4 & & & 4 & 4 3 3 3 3 3 4 & % 4 4 % 3 3 3 4 3 3 3 3 3 4 4 4 4 4 4 4 4 4 3 4 4 3 3 4 ",
"5 5 5 5 5 & 5 5 & 5 5 & 5 5 4 & 4 5 5 & & 4 5 4 4 4 4 4 4 4 4 4 4 4 4 & 5 4 4 4 4 4 4 4 4 4 4 4 4 4 4 4 4 4 5 4 4 4 4 4 4 4 4 5 ",
"5 5 5 5 5 0 5 5 5 0 5 0 5 0 5 0 5 5 5 0 0 5 0 5 0 9 5 9 5 5 5 0 7 5 5 9 9 9 5 9 5 5 5 5 7 7 7 7 9 9 9 9 7 7 9 7 7 0 9 9 9 9 7 9 ",
"0 0 0 0 0 0 5 0 0 0 5 5 0 0 0 0 0 0 0 0 0 0 0 0 0 0 0 0 0 0 0 0 9 0 9 5 9 9 9 7 9 9 0 0 0 0 0 0 0 0 0 0 0 0 0 0 0 0 0 0 0 0 9 0 ",
"q q q q q q q q q q a 0 a 0 0 a i i q q q q q q q q q q q q q q w w w q w w w w w w w w w w w w w w w p w w p w w i w w p w i p ",
"a q q a q a p p a a a 0 a 0 a a a a g g d d a a a a a a a a a a s a s s w s p p w s p p p p p p p p p p p p a p p p p p a p p p ",
"d c c c c c c c c c c c c c c c B B B V D Z Z Z x x x l k j j h l z z z c c c c c c c c c c s d s d d c c c c f s d s d s s s d ",
"c / ~ ~ ~ n n n c ~ ~ ~ Y ~ E I I I I U U W o.] ) J R P P Z C C v F I Y ~ ~ ~ ~ ~ c n n c m m m c n n n n n n n n n n n n h h d ",
"Y D ~ ~ ~ ~ ~ ~ ~ ~ ~ ~ ~ ~ ~ ~ ~ ~ Y ^ l.l.l.l.a.$.+.X.o.W U U E Y Y ~ ~ ~ ~ ~ ~ ~ ~ ~ ~ ~ ~ ~ ~ ~ ~ ~ ~ ~ ~ ~ ~ ~ ~ ~ ~ ~ ~ ~ ",
"E ~ ~ ~ ~ ~ ~ ~ ~ ~ V V V B B B V F I W +.l.a.l.l.s.s.$.+.Q U Y Y Y Y V z V z z ~ ~ ~ ~ ~ ~ ~ ~ ~ ~ ~ ~ ~ ~ ~ ~ ~ ~ ~ ~ ~ ~ ~ ~ ",
"C C C Z C C A A A A C Z C C C C Z F G P o.+.+.a.-.s.s.;.$.Q U F F F F A A A A A A A A A A A A V A A A A A C A A A A C A A C A C ",
"G G A T G G G G G G G G G G G G S A T L R ! o.o.o.o.T G G G A T G G G G G G G G G G G G G G G T G G A T G G A T G G G G G T Z T ",
"T T T T T T T ! T T R T T T T T T T T T T T T R T T T ! T T T R T T T ! T T T T T R T T T R R T T T T T T T T T T Q T R T T T T ",
"o.o.o.o.o.o.o.! o.o.o.o.o.! ! ! o.o.o.! ! o.o.o.o.o.o.o.! o.! ! ! ! o.! o.o.o.o.! o.o.o.! ! o.! o.o.o.o.o.o.o.o.! o.o.o.! ! ! ! ",
"&.&.&.&.&.&.&.&.&.&.&.&.>.&.&.&.&.&.&.&.&.&.&.&.&.&.&.&.&.&.&.&.&.&.*.&.&.&.&.&.&.&.&.&.*.&.*.&.&.&.&.&.&.&.&.&.&.&.&.&.*.&.&.&.",
"S.S.S.S.S.S.S.S.Z.Z.Z.>.f.f.>.f.d.d.d.d.<.f.>.f.f.>.f.>.>.f.1.f.f.>.f.>.f.f.>.f.>.c.*.>.f.>.f.>.>.f.1.c.>.>.f.>.f.f.B.B.B.B.B.B.",
"B.B.B.B.B.B.B.B.B.B.B.B.B.B.B.B.B.B.B.B.B.B.B.B.B.B.B.B.B.B.B.B.B.B.B.B.B.B.B.B.B.B.B.B.B.B.B.B.B.B.B.B.B.B.B.B.B.B.B.B.B.B.B.B.",
"B.B.B.B.B.B.B.B.B.B.B.B.B.B.B.B.B.B.B.B.B.B.B.B.B.B.B.B.B.B.B.B.B.B.B.B.B.B.B.B.B.B.B.B.B.B.B.B.B.B.B.B.B.B.B.B.B.B.B.B.B.B.B.B.",
"B.B.B.B.B.B.B.B.B.B.B.B.B.B.B.B.B.B.B.B.B.B.B.B.B.B.B.B.B.B.B.B.B.B.B.B.B.B.B.B.B.B.B.B.B.B.B.B.B.B.B.B.B.B.B.B.B.B.B.B.B.B.B.B."
};
