/* XPM */
static char *f904d046bea84a10fd1c60519bf27d8dcCI0131xbiXf8cCf[] = {
/* columns rows colors chars-per-pixel */
"64 64 186 2 ",
"   c None",
".  c black",
"X  c #1F1F0D",
"o  c gray9",
"O  c #1B1B1B",
"+  c #232323",
"@  c #3F3F3F",
"#  c #663B29",
"$  c #1B4F16",
"%  c #326014",
"&  c #2F5C2A",
"*  c #396634",
"=  c #434112",
"-  c #597D10",
";  c #5A7C10",
":  c #6B402D",
">  c #75412A",
",  c #704432",
"<  c #744E3F",
"1  c #5F7D3B",
"2  c #0A0F4A",
"3  c #464646",
"4  c #535353",
"5  c gray34",
"6  c #7C7947",
"7  c #757C7A",
"8  c gray47",
"9  c #9C5A3C",
"0  c #966652",
"q  c #A06246",
"w  c #A4684C",
"e  c #A96F56",
"r  c #AA7157",
"t  c #947970",
"y  c #B17D67",
"u  c #B27F6A",
"i  c #B37F6A",
"p  c #3E952F",
"a  c #389331",
"s  c #3B9531",
"d  c #399432",
"f  c #3A9432",
"g  c #3A9532",
"h  c #3A9533",
"j  c #3B9533",
"k  c #3E9731",
"l  c #3D9533",
"z  c #3D9633",
"x  c #3E9633",
"c  c #3B9534",
"v  c #3F9635",
"b  c #7A930D",
"n  c #649E1F",
"m  c #72A418",
"M  c #44982E",
"N  c #519E2B",
"B  c #409730",
"V  c #409634",
"C  c #409735",
"Z  c #419735",
"A  c #429737",
"S  c #439737",
"D  c #449734",
"F  c #439833",
"G  c #459935",
"H  c #459836",
"J  c #489934",
"K  c #499935",
"L  c #499936",
"P  c #4D9B35",
"I  c #4E9B36",
"U  c #4E9C35",
"Y  c #4F9C36",
"T  c #529C36",
"R  c #559D38",
"E  c #5A9F38",
"W  c #748C33",
"Q  c #5BA037",
"!  c #5EA437",
"~  c #5BA038",
"^  c #4CBD3E",
"/  c #62A239",
"(  c #63A13A",
")  c #65A239",
"_  c #61A438",
"`  c #6EA73A",
"'  c #6EA839",
"]  c #6EAA38",
"[  c #6EAB38",
"{  c #6EAA39",
"}  c #6DA83A",
"|  c #58C03A",
" . c #22B14C",
".. c #31B547",
"X. c #469B40",
"o. c #5E835B",
"O. c #688B66",
"+. c #759465",
"@. c #74B46E",
"#. c #93A60B",
"$. c #94A60A",
"%. c #9FAE09",
"&. c #86B919",
"*. c #93C81B",
"=. c #95C91A",
"-. c #AEE71B",
";. c #A8E61D",
":. c #B9E917",
">. c #BDE816",
",. c #B8E818",
"<. c #BBEB38",
"1. c #FFF200",
"2. c #E9E63D",
"3. c #9DAD5C",
"4. c #AFB74E",
"5. c #B3806D",
"6. c #B4826E",
"7. c #94A867",
"8. c #A3A17D",
"9. c #E2E04C",
"0. c #E5E64D",
"q. c #E3EC61",
"w. c #E5F76E",
"e. c #F0EE7F",
"r. c #E0F37A",
"t. c #E8F57C",
"y. c gray56",
"u. c #959589",
"i. c #92928C",
"p. c #909090",
"a. c #939393",
"s. c #959595",
"d. c #979797",
"f. c #9A9A9A",
"g. c #9F9F9F",
"h. c gray63",
"j. c #A2A2A2",
"k. c #A4A4A4",
"l. c #ACACAC",
"z. c gray68",
"x. c #B7B6A6",
"c. c #B7B7AE",
"v. c #B8B8AC",
"b. c #BBBBAC",
"n. c #B2B2B2",
"m. c gray70",
"M. c #B5B5B2",
"N. c #B4B4B4",
"B. c #B6B6B6",
"V. c #BCBCB0",
"C. c #BCBCB6",
"Z. c #B9B9B9",
"A. c gray73",
"S. c #BDD999",
"D. c #A3DBBA",
"F. c #DBF998",
"G. c #F1F0A3",
"H. c #E1F7B2",
"J. c gray76",
"K. c #C7C2C7",
"L. c #CFC7CF",
"P. c #C8C8C8",
"I. c #CFC8CF",
"U. c #D3CBD3",
"Y. c #D4CCD4",
"T. c #D5CCD5",
"R. c #D5CED5",
"E. c #D6CDD6",
"W. c #D7CDD7",
"Q. c #D7CED7",
"!. c #D8CFD8",
"~. c #D5D5D5",
"^. c #D7D7D7",
"/. c #D9D0D9",
"(. c #D9D3D9",
"). c #DCD2DC",
"_. c #DCD3DC",
"`. c #DDD5DD",
"'. c #DFD7DF",
"]. c #E6E2E6",
"[. c #E9E4E9",
"{. c #F9F9F9",
"}. c #FAF9FA",
"|. c #FBFAFB",
" X c #FCFBFC",
".X c white",
/* pixels */
"                            #                                                                                                   ",
"                          # # #                                                                                                 ",
"                        # 9 9 9 #                                                                                               ",
"                      # 9 9 9 9 9 #           . . . . .                                                                         ",
"                    # 9 9 9 9 9 9 9 #   . . . . N.N.y.y.. .                                                                     ",
"                  # 9 9 9 9 9 9 9 # > # . N.N.N.N.N.y.y.y.y..                                                                   ",
"                # 9 9 9 9 9 9 9 9 > > # N.N.N.N.N.N.y.y.y.y..                                                                   ",
"              # 9 9 9 9 9 9 9 9 # > q # N.N.N.N.N.N.y.y.y.y..                                                                   ",
"            : 9 9 9 9 9 9 9 9 # > 9 t N.N.N.N.N.N.N.y.y.y.y.. . . . . .                                                         ",
"          , w 9 9 9 9 9 9 9 # 9 9 < '.K.N.N.N.N.N.y.y.y.y.p..   f.y.y.y..                                                       ",
"        0 r e e 9 9 9 9 9 # 9 9 # ]./.I.N.N.N.N.N.y.y.y.y.y.. P.N.y.y.y..                                                       ",
"      0 u 5.y 9 9 9 9 9 # 9 9 # {.(./.I.N.N.N.y.y.y.y.p.h.@ + N.N.N.y.y.. .                                                     ",
"    # i 6.u 9 9 9 9 9 # 9 9 # .X]./.U.N.N.N.n.y.y.y.y.y.n.. n.N.N.N.y.y.. N..                                                   ",
"  # 9 u u 9 9 9 9 9 # 9 9 #   {.W./.I.N.N.n.y.y.y.y.p.h.. /.N.N.N.y.y.y.. y.N..                                                 ",
"# 9 9 r 9 9 9 9 9 # 9 9 # {.].W.W.U.N.N.N.p.y.y.y.y.y.h.N.N.N.N.y.y.y.8 . N.y.N..                                               ",
"  # 9 9 9 9 9 9 # 9 9 # .X].W.W.!.I.N.N.N.y.y.y.y.y.d.. N.N.N.N.y.y.8 8 3 N.y.y.N..                                             ",
"    # 9 9 9 9 # 9 9 # .X.X/./.U.K.N.N.N.y.y.y.y.y.d.. .XN.N.N.N.y.y.8 8 3 N.N.y.y.N..                                           ",
"      # 9 # # 9 # # .X.X.XW.W.N.N.N.N.N.y.y.y.y.d.. .XN.N.N.N.y.y.y.8 3 y.N.8 8 y.N.N..                                         ",
"        # 9 9 9 # .X.X.XU.U.N.N.N.N.N.y.y.y.y.y.. .XN.N.N.N.y.y.y.8 3 y.N.N.8 8 8 y.y.N..                                       ",
"          # # .X.X.X.XU.W.I.N.N.N.N.N.y.y.y.y.O .X.XL.N.N.N.y.y.8 8 3 y.N.N.8 8 8 8 8 y.y..                                     ",
"        . . .X.X.X[.W.W.U.N.N.N.N.N.y.y.y.y.O .X.XL.N.N.N.y.y.8 8 3 y.y.y.N.N.N.8 8 8 8 y.y..                                   ",
"        . .X{..X[.I.W.U.N.N.N.N.N.y.y.y.h.O .X.XW.N.N.y.y.y.8 8 3 N.N.y.y.y.N.N.N.8 8 8 y.y.y..                                 ",
"        . .X.X.XW.U.K.N.N.N.n.n.y.y.f.y.. .X.XW.N.N.y.y.y.8 8 3 N.N.N.N.y.y.y.N.N.N.8 8 8 8 y.y..                               ",
"      . O .X/.W.U.N.N.N.N.N.y.y.y.f.z.. .X.XW.N.N.y.y.8 8 8 3 N.N.N.N.N.N.y.y.y.N.N.N.8 8 5 8 y.y..                             ",
"      . [.`.W.U.N.N.N.N.n.y.d.g.k.k.. {..XL.N.N.N.y.y.8 8 4 N.N.N.N.N.N.N.N.y.y.y.N.N.N.8 5 5 8 y.y..                           ",
"      . /.W.U.N.N.N.N.N.y.y.d.g.k.. {..XN.N.N.N.y.y.y.8 3 N.N.N.N.N.N.N.N.N.N.y.y.y.N.N.N.8 5 5 8 y.y..                         ",
"      . K.K.N.N.N.N.y.y.y.y.l.^.. .X.X.XN.N.y.y.y.y.3 3 N.n.n.N.N.N.N.N.N.N.N.N.y.y.y.N.N.N.8 5 5 8 y.y..                       ",
"      . N.N.N.N.N.N.y.y.y.y.n.. .X.X XN.N.y.y.y.y.y.3 N.  n.n.n.N.N.N.N.N.N.N.N.N.y.y.y.N.N.N.8 5 5 8 y.y.y.                    ",
"        . N.N.N.N.y.y.d.d.O .X.X.X XN.N.J.y.y.y.y.3     N.N.n.N.N.N.N.N.N.N.N.N.N.N.y.y.y.N.N.N.8 5 5 8 y.y..                   ",
"        . N.N.N.N.y.d.. . .X.X/.N.N.N.N.y.y.y.y.N.N.  N.N.M.c.v.v.c.M.N.N.N.N.N.N.N.N.y.y.y.N.N.N.8 5 5 y.y.y..                 ",
"          . . . . . . .X.X.XN.N.N.N.y.y.y.y.y..     N.N.N.M.c.v.N.N.M.N.N.N.N.N.N.N.N.N.y.y.y.N.N.N.8 5 5 5 y.y..               ",
"                . .X.X.XN.N.N.^.N.y.y.i.i.y..     N.N.N.N.N.N.N.N.N.N.N.N.N.N.N.N.N.N.N.N.y.y.y.N.N.N.8 5 5 8 y.y..             ",
"                . N..X.XN.z.N.N.y.y.p.u.X v.    M.N.N.N.N.x.N.N.N.N.N.N.N.M.N.N.N.N.$ $ $ $ $ $ $ $ $ $ $ 5 5 5 y.y..           ",
"                . N.N.N.N.N.N.y.y.i.p.8.= v.V.V.C.A.A.N.$ % - b #.%.#.b - % $ $ $ $ ;.;.;.;.;.;.;.;.;.;.;. .$ $ y.y.y..         ",
"                . y.y.y.y.y.y.y.y.y.a.6 4.3.7.7 +.O.o.* ;.1.;.w.;.1.1.1.;.1.;.;.;.;.;.;.;.;.;.;.;.;.;.;.;.;. . .$ y.y.y..       ",
"                . y.y.y.y.y.y.y.. . d D..Xt..X.XH.1.1.1.1.1.;.;.;.;.;.;.;.;.;.;.;.;.;. . . . . . . . . . . . .;.. $ 8 y.y..     ",
"                  . . . . . . . ;..Xd @.S.1..X.X.X.X1.<.;.-.,.:.>.,.-.;.;.;.;.;. . . . .$ $ $ $ $ $ $ $ $ $ $ $ $ $ $ 8 y.y..   ",
"                      . N.N.N.. . =.=..X.XG.e..X.Xq.r.:. ...^ | ^ ^ .. . . . . . . . .$ $ d d d d d d d d d d d d d $ $ 8 y.N.. ",
"                        . N.N.N.. $ =.=.X.d 9.2.0.q.r.F. .a  . . .$ $ $ $ $ $ $ $ $ $ d d d d d d d d d d d d d d d d $ 8 y.y.. ",
"                          . y.N.N.  & W .X.Xd =.=.1.=..Xp k d a s k d d d d d d d d d d d d d d d d d d d d d d d d d $ 8 8 y.. ",
"                            . y.N.  o 1 =..X=.d d =.=.=.d N M F d d d d d d d d d d d d d d d d d d d d d d d d d d $ 8 8 8 N.. ",
"                              . y.N.  . $ $ ;.=.d =.1.=.d d d d B d d d d d d d d d d d d d d d d d d d d d d d d d $ 8 8 5 .   ",
"                                . y.    . $ ;.=.=.d =.=.d d d d d p d d d d d d d d d d d d d d d d d d d c v d d $ d 8 8 5 .   ",
"                                  . y.  N.. $ ;.=.=.d =.&.&.d d d d d d d d d d d d d d d d d d d d d d d Z B v d $ 8 8 8 .     ",
"                                    .       . $ $ ;.=.d =.=.d m d d d d d d d d d d d d d d d d d d d c Z J I F d . 8 8 5 .     ",
"                                      . y.    . $ $ ;.=.d =.=.d d d d n d k d d d d d d d d d d d d d v J U J d $ 8 8 8 .       ",
"                                        . y.  N.. $ $ ;.;.d ;.=.d d d d d d k d d d d d d d d d d c c J U J d $ 8 8 8 . .       ",
"                                          . y.  y.. $ $ ;.;.d =.=.=.d d d d d d d d d d d d d d c S J J J d $ . y.8 8 .         ",
"                                            . N.    . $ $ ;.;.d $ =.=.d a h a h d d d d d d d c S R ~ T d . 8 y.y.8 .           ",
"                                              . y.      $ $ $ ;.d =.=.=.&.a h a d d d d d d v G U / ) U d 8 y.y.8 5 .           ",
"                                                . y.N.  . $ $ $ ;.d =.=.*.d a h d d c d d d G T E ) ~ F . y.y.8 5 .             ",
"                                                  . y.N.y.. $ $ ;.;.d ;.=.=.a c k c d d d d [ } ` } G $ 8 y.y.5 5 .             ",
"                                                    . N.N.N.. $ $ ;.;.d =.=.*.F _ ! v [ [ [ } [ } } $ y.y.y.5 5 .               ",
"                                                      . y.N.y.. $ $ ;.;.d =.[ [ [ [ [ [ [ [ [ [ [ $ N.p.5 5 5 .                 ",
"                                                        . N.N.y.. $ 2 ;.;.d [ [ [ [ [ [ [ d d $ $ N.N.8 5 8 .                   ",
"                                                          . N.N.p.. $ $ ;.a v [ [ [ [ [ $ $ $ $ M.N.N.8 N..                     ",
"                                                            . N.N.N.. $ $ d d d d $ $ $ $ N.N.N.N.N.N.N..                       ",
"                                                              . N.N.N.. $ $ 2 $ $ $ N.N.N.N.N.N.N.N.. .                         ",
"                                                                . p.N.N.. . $ $ N.N.N.N.N.N.N.N.. .                             ",
"                                                                  . y.N.N.N.N.N.N.N.N.N.N.N.. .                                 ",
"                                                                    . N.N.N.N.N.N.N.N.N.N.. .                                   ",
"                                                                      . y.N.N.N.N.N.N.. .                                       ",
"                                                                        . N.N.N.N.. .                                           ",
"                                                                          . . . .                                               "
};
