/* XPM */
static char *ba71d194307841f385f27e475b6431d4sRAVBZUiF4G1mSWN[] = {
/* columns rows colors chars-per-pixel */
"64 64 241 2 ",
"   c #040F0D",
".  c #003606",
"X  c #012111",
"o  c #041C27",
"O  c #0F2B30",
"+  c #012D3A",
"@  c #2D3234",
"#  c #69311C",
"$  c #763D27",
"%  c #004702",
"&  c #005A09",
"*  c #195500",
"=  c #006A08",
"-  c #007501",
";  c #006811",
":  c #007819",
">  c #025323",
",  c #2A4C2F",
"<  c #006B24",
"1  c #0A702D",
"2  c #5D5C3B",
"3  c #03364E",
"4  c #223D46",
"5  c #003864",
"6  c #1D434D",
"7  c #044954",
"8  c #1B4954",
"9  c #27434A",
"0  c #2A4B55",
"q  c #2D5158",
"w  c #375359",
"e  c #39734A",
"r  c #004C6A",
"t  c #005276",
"y  c #3C5E64",
"u  c #006576",
"i  c #2A6269",
"p  c #4A4B4A",
"a  c #485253",
"s  c #575858",
"d  c #604A42",
"f  c #65524C",
"g  c #695A54",
"h  c #506F57",
"j  c #5D6061",
"k  c #527069",
"l  c #636363",
"z  c #6A6B6C",
"x  c #6E7170",
"c  c #747474",
"v  c #757977",
"b  c #7B7A7B",
"n  c #8C3B1B",
"m  c #9B411C",
"M  c #97492B",
"N  c #954B2E",
"B  c #9B4F31",
"V  c #A34D2B",
"C  c #AD5736",
"Z  c #B25A36",
"A  c #B25C39",
"S  c #B1603F",
"D  c #B56F54",
"F  c #9D7667",
"G  c #A77665",
"H  c #C27559",
"J  c #008706",
"K  c #009B08",
"L  c #008418",
"P  c #00961A",
"I  c #00991B",
"U  c #359D00",
"Y  c #2D9E1E",
"T  c #02A811",
"R  c #32B003",
"E  c #36B901",
"W  c #009522",
"Q  c #009B25",
"!  c #009028",
"~  c #009D2C",
"^  c #009234",
"/  c #00A528",
"(  c #06AC31",
")  c #35AB29",
"_  c #43B200",
"`  c #55B800",
"'  c #69B800",
"]  c #5D8920",
"[  c #4DB129",
"{  c #01D302",
"}  c #00D216",
"|  c #56CE00",
" . c #63C400",
".. c #76CB00",
"X. c #64DC00",
"o. c #6FE700",
"O. c #00B44C",
"+. c #23BB7E",
"@. c #63885C",
"#. c #708B75",
"$. c #5CC06E",
"%. c #8CCD00",
"&. c #ACD500",
"*. c #83ED00",
"=. c #9AEE00",
"-. c #93F200",
";. c #A2EE00",
":. c #DADE00",
">. c #EBEE00",
",. c #97A657",
"<. c #879076",
"1. c #CB8670",
"2. c #A0DB60",
"3. c #E9F268",
"4. c #004B8F",
"5. c #00598A",
"6. c #00579A",
"7. c #00728C",
"8. c #006799",
"9. c #00739D",
"0. c #286A89",
"q. c #0049A6",
"w. c #004CA4",
"e. c #0054A4",
"r. c #005CA4",
"t. c #0054AA",
"y. c #005DAB",
"u. c #005DB1",
"i. c #0064A5",
"p. c #006CA3",
"a. c #0063AC",
"s. c #006AAC",
"d. c #0077AA",
"f. c #0065B3",
"g. c #006BB4",
"h. c #0067B9",
"j. c #006DB9",
"k. c #0073B4",
"l. c #007BB5",
"z. c #0074BB",
"x. c #007BBD",
"c. c #637C84",
"v. c #0075C2",
"b. c #007CC3",
"n. c #007DC9",
"m. c #867D84",
"M. c #0188A8",
"N. c #0094AC",
"B. c #0088B6",
"V. c #0083BD",
"C. c #0094BC",
"Z. c #1D9BB2",
"A. c #73888C",
"S. c #6E9AAB",
"D. c #0083C5",
"F. c #008AC5",
"G. c #0084CA",
"H. c #008CCB",
"J. c #0092C5",
"K. c #0098C5",
"L. c #0092CC",
"P. c #009BCD",
"I. c #0087D5",
"U. c #008DD2",
"Y. c #0094D2",
"T. c #009CD3",
"R. c #0097DA",
"E. c #009CDA",
"W. c #00A1CD",
"Q. c #00AACB",
"!. c #00B7C8",
"~. c #00A3D4",
"^. c #00AAD5",
"/. c #00A2DB",
"(. c #00ABDC",
"). c #00B3D4",
"_. c #00BAD6",
"`. c #00B3DC",
"'. c #00BADC",
"]. c #00AAE2",
"[. c #00B4E2",
"{. c #00BBE3",
"}. c #00B8E9",
"|. c #00C3DD",
" X c #00C3E4",
".X c #00CBE5",
"XX c #00C5E9",
"oX c #00CCEA",
"OX c #00D4E6",
"+X c #00D3EC",
"@X c #00DBEC",
"#X c #00CCF1",
"$X c #00D9F2",
"%X c #00E2EE",
"&X c #00E3F3",
"*X c #00EBF5",
"=X c #00E5F8",
"-X c #00EDFB",
";X c #00F3FC",
":X c #00FDFE",
">X c #2BFFFF",
",X c #5EC5D5",
"<X c #49FFFF",
"1X c #59FFFF",
"2X c #6CFFFF",
"3X c #838383",
"4X c #898688",
"5X c #8C8C8C",
"6X c #8F908E",
"7X c #949394",
"8X c #9B969A",
"9X c #9B9B9B",
"0X c #9AA097",
"qX c #90B0B7",
"wX c #A3A3A3",
"eX c #ABA5AA",
"rX c #ACACAC",
"tX c #B0B4B4",
"yX c #B4B5B4",
"uX c #B9B5BA",
"iX c #BCBBBC",
"pX c #C0BDBF",
"aX c #9BD69C",
"sX c #E2F1A3",
"dX c #BBB7CB",
"fX c #C2BDC3",
"gX c #BACACE",
"hX c #90E1EE",
"jX c #C3C2C3",
"kX c #CAC4C9",
"lX c #CDCCCD",
"zX c #CFC9D1",
"xX c #D4CBD4",
"cX c #D5D2D5",
"vX c #E3D4D8",
"bX c #E4DCE5",
"nX c #E5EDE0",
"mX c #EAE8E9",
"MX c #F0EDF3",
"NX c #F6F4F7",
"BX c #FDFDFD",
/* pixels */
"i.p.x.a.a.l.D.H.n.T.*XF.y.b.b.z.g.D.D.G.F.b.a.a.a.g.V.@XW.r.r.B.k.g.b.Q.@XF.G.F.(.oX[.L.v.z.e.w.P.oXs.s.k.i.s.k.l.f.f.Y.#XP.D.b.",
"g.g.L.b.b.F.D.G.j.`.:X#XH.H.K.L.x.V.G.G.G.z.a.a.r.s. X~.6.r.a.y.z.a.a.*XoXx.G.n.z.L.(.XX{.+X|.|.@Xk.e.g.i.g.x.V.F.J.P.T./.}.D.b.",
"z.D.T.T.U.b.b.z./.'.K.`.#X~.z.f.b.F.n.G.F.z.y.a.6.~.T.r.D.C.k.w.y.k.'.-XF.D.G.j.v.D.z.F.(.OX;X1X@Xg.l.z.g.b.g.a.l.Y.P.G.l./.`.x.",
"V.F.H.b.b.U.T.oX.XV.w.f.T.(.T.z.f.D.D.D.D.z.y.r.W.;XXX.X.X~.W.`.Y..X<X_.g.F.z.j.L.H.D.D.D.g.J.;X%XT.T.F.b.g.g.z.G.G.G.D.D.x.'.'.",
"+X'.oXoX X#X+X{.L.s.t.z.z.g.V.P.{.Q.(.].P.`.~.W.:X-X^.F.f.t.g.L.J.~.*XoXx.D.b.F.L.b.H.T.F.n.j.OX*XG.H.H.D.D.D.H.H.H.H.G.G.b.l.oX",
"OX^.`.oX XQ.F.h.D.F.F.b.b.z.6.i. X&X`.{.oX(.T.P.XX(.w.t.y.f.f.y.r.t.T.(.Y.Y.Y.D.k.v.D.E./.H.z.).-XF.v.n.G.G.G.G.b.D.G.H.D.G.z.`.",
"`.g.b.G.b.v.j.f.s.l.L.b.z.H.V.l.l.^.L.b.L.n.j.a.P.`.g.a.f.f.f.f.f.f.^.L.D.Y.L.F.V.G.G.b.P.E.G.L.-X'.b.b.G.H.G.D.D.D.G.F.H.D.F.H.",
"'.H.b.G.U.I.h.r.i.g.l.D.H.H.L.U.D.H.{.H.F.D.t.e.^.W.k.z.g.f.f.f.a.D.{.J.n.F.D.F.F.G.G.G.b.F.P.b.#X@XF.G.H.G.H.D.D.G.D.H.H.G.D.G.",
" X^.z.D.G.P.b.g.l.g.y.f.z.Y.L.G.H.b.`.).t u g.z.~.g.y.l.x.f.y.a.k.~.&XH.v.n.b.z.x.D.H.D.G.D.F.n.(.@XL.G.H.G.F.G.G.F.D.F.L.D.v.b.",
"`. XV.F.F.H.Y.U.z.y.y.u.b.T.H.G.Y.H.L.W.d d d.W.(.a.y.a.D.j.g.b.b.K.;XY.g.i.a.a.a.D.H.G.D.D.D.E.H. XL.H.G.G.G.G.G.H.G.H.D.s.k.b.",
"T.-XF.x.b.D.E.E.z.l.z.b.D.L.H.H.Y.H.d.g C C f !.T.x.k.6.5.5.5.H.b.P.&XL.z.l.l.z.z.G.H.G.G.n.R./.z.)./.b.Y.G.n.D.D.G.H.H.g.r.s.x.",
"L.#XL.x.x.D.Y.T.H.F.F.F.T.L.H.Y.H.M.f C S A C z d.9.5 o w k w 3 t  X.Xx.I.G.G.G.H.L.H.D.G.U.].D.w.|.-XD.F.Y.G.D.D.D.H.G.f.a.s.a.",
"~.^.`.z.D.Y.T.Y.F.F.D.P.Y.U.H.H.d.f C A Z C V N # @ x 5XyXyX7Xc a 7.).v.n.G.D.D.D.H.H.G.H.H.l.l.a.H.P. X~.D.b.D.D.G.F.G.k.i.g.a.",
"P.y. X^.w.n.(.Y.b.G.T.~.H.L.H.B.f A A A A S B n $ 7XgXiXiXrX7X8Xx u K.g.a.g.b.D.F.G.H.H.H.b.i.s.j.T.k.W.:XL.g.D.G.G.G.G.z.e.e.T.",
"z.w.F.-Xz.q.L.E.n.E.].L.L.L.d.f A A Z Z S B $ V F rXdXtXiXrX6X7Xz 7 t 5 5 4.z.H.D.H.H.G.G.G.g.a.k.`.F.k. X&X XY.v.b.D.x.z.g.`. X",
"y.u.e.~.XXg.z.Y.P.}.].H.b.d.g S A C A A B M M G lXiXyXyXyX9X6X7Xz i c.s l 3 l.H.L.L.H.G.G.G.g.y.l.{.(.l.k.~.+X+X X`.`.W.`.$X^.8.",
"b.r.e.e. X$Xb.b.J.(./.D.d.F H D A Z Z B N V G cXvXuXyXyXeX5X6X8Xs k cXeXeX4 5.H.H.G.H.U.H.H.g.i.a.(.XXu.j.b.l.L.~.~.(.`.oX;X).K.",
"XX Xg.q.).@XoX`.D./.].B.c 1.H S Z A B M M G mXbXlXyXiXwX6X6X6X7X@ 4XdXtX5X@ + 8.F.L.H.b.G.G.V.s.e.K.oXv.j.L.H.b.v.b.v.b.H./.`.}.",
"z.^.{..XT.t.~..X@X@X!.g H 1.Z Z A B N m z hXmXzXpXyXrX7X6X5XwXl 4XdXtXwX<.@ 3Xy p.Y.H.D.U.z.k.V.H.~. Xz.b.P.H.U.n.b.n.U./.E.L.G.",
"D.y.V.:X`.j.F.V.`.'.a A H S C A B B m G gXhXzXzXyXyX9X5X5X9X3Xb lXtX9X4XF p 5XrXq p.H.G.G.l.e.l.U.].`.a.g.G.L.P.G.b.G.T.T.H.H.U.",
"G.H.z.P..XJ.F.H.H.G.d.f C C Z B M m G mXMXxXxXfXyXwX5X5XwXb s uXyXiX9X4Xc s 9XtXwX0 8.H.Y.x.a.f.g.(.{.a.j.G.U.L.H.H.H.E.G.b.n.D.",
"G.H.L.l. X).D.H.R.R.R.F.g C N M # G mXBXxXfXuXdXyX9X5X9Xv a iXiXyXrX7X5Xl c rX5X7XyXq p.L.H.F.z.g.~.'.a.g.F.H.L.H.Y.(.L.D.H.D.G.",
"D.D.L.D.`.{.b.Y./.T././.C.s V M G mXBXbXfXyXyXuXwX5X9Xv p lXlXyXrX7X6Xx s yXeXc b 7XwXq s.L.G.b.x. X^.D.b.F.L.H.H.H.P.D.D.G.G.D.",
"D.D.F.H.(.[.b.Y./.H.Y./.].u $ vXNXNXvXvXfXyXyXyX8X7Xb j cXmXiXuXwX6Xb s x tXrX6Xb c 3X6X4 9.~.P. X:XL.G.H.D.L.L.L.D.G.G.G.G.G.H.",
"H.G.U.Y.}.^.D.Y.Y.T./.[.K.+ jXBXMXvXvXfXyXyXyX7X7X<.j xXMXpXeX9X6Xb g 5XwX5XwXdXwXv v 5X7X9 C.(.).%XL.D.D.D.L.L.H.F.H.F.D.G.H.H.",
"n.H.Y.H.}.P.F.T.Y.T.~./.M.w BXNXvXkXpXyXyXyX9X9Xb s xXNXjXeX6X5Xv l 5XjXtX9X5XwXiXwXb b 3X6X9 r.z. X`.z.b.F.L.H.H.H.G.F.F.b.z.b.",
"f.V.z.'.XXb.P.T.U.F.L.F.3 c MXcXfXyXyXyXwX6X9X3Xs jXNXfXrX7Xm.b l 4XpXyXiXyX9X4XwXiXrXv s <.7X8 8. X=XH.D.b.H.L.L.F.G.F.x.f.y.f.",
"z.f.6.OX`.j.G.b.H.L.J.V.5 xXmXjXyXyXyXwX5XrX5Xs jXNXuXyXwX7Xm.g 7XgXyXyXyXyXtX9X4XwXiXwXl a m.7X6 9.:XoXv.n.H.U.H.H.H.H.l.y.s.g.",
"j.w.W.;XF.f.f.j.l.D.L.V.3 iXxXtXuXrX7X6X9X8Xj gXBXiX9X9X7XA.g S.iXyXyXyXyXyXiXyX9X4XwXpXrXl p 3X7X8 !.:X_.l.G.H.H.L.H.H.D.f.a.a.",
"~.{.:X:XV.y.y.a.f.D.L.F.r A.jXuXiXwX7X<.5X7XcXBXlXyX7X5X7Xa 0.Z.yXyXyXyXyXyXtXiXyX8X5XwXfXeXl p b 9Xc.M.:X@X~.K.L.D.V.F.G.b.s.k.",
" X`.@X@XB.g.a.a.a.j.G.~.C.4 pXkXeX7Xf p uXMXbXlXtXwX7X7X9XN.d.qXyXyXyXyXyXyXyXyXyXyX8X4XwXpXeXj p 5X9X6 N.1X2X;X$XXXoX`.(.}.`.XX",
"z.r.B.`.l.l.l.a.a.y.D.].L.t 4 4 @ @ 5XiXmXlXyXwX8X9X4X@ K.|.qXyXyXyXyXyXyXyXyXyXyXiXkXeX8XyXxXuXc j x 7X6 N.2XOX/.XXOX{.T.L.F.D.",
"j.g.x.T.g.k.k.k.a.u.H.T.H.L.d.9.7 yXBXcXyXjXyX6X4X3Xx L.).qXtXfXjXjXgXdXfXkXkXkXkXtXA.A.k k A.A.x 9 p m.6X6 !.P.b.V.D.H.F.y.e.y.",
"f.g.l.z.s.s.s.l.f.f.H.L.L.L.x.Q.8 lXmXuXyXrX6X8X<.2 qX,XgXdXkX#.@.,.,.,.,.@.h k h @.U U U U U U U R ^ O v 8Xw M.G.J.H.L.F.l.a.f.",
"y.x.z.P.z.a.j.z.x.b.G.F.H.D.J.|.8 0XwX0X9X7X6X5X<.,.2.9X#.#.@.` &.%.&.:.:.&.%.' `  .-.o.o.*.*.*.*.-.{ ( 1 A.7X0 6.J.L.H.L.F.g.a.",
"V.V.l. X/.q.u.z.L.F.D.D.z.F.oXJ.3 x b z l x , , +.sXsXBXsX>.>.>.:.-.=.;.;.=.=.=.o.X.} O.~ ~ ~ ~ ~ / ~ ( * . v 7X6 9.F.U.L.L.F.g.",
"F.z.b..X;Xl.f.b.D.D.G.j.F.$XJ.6.5.3   @ a   ] 2.$.sX3.nXNXsX>.{ { X.X.| { { { { ( O.( & & ; ; ; ; ; ; ; ; = & v 7X0 t J.H.H.G.G.",
"x.v.L.%X1X:X_.F.G.n.b.K.*XOXw.i.i.p.4.y zX8X  J 2.aX,.3.3.3.3.O.^ ( O.: < < < < < : : : Q Q Q Q / Q Q Q Q Q - , eXF o J.L.H.G.U.",
"F.L.&X1X>X:X;XoX(.(.+X:X2X_.w.a.i.s.z.4.4 uXS.7.U aXaXE %.&.sXO.I Q ! L L L L L L : W Q W W W W W W W W W P : h 7Xz o J.L.H.D.x.",
" X@X;X.X|.^.K.T.Y.T.{.|.&X;X(.f.a.k.z.g.t 9 dXD.O ] 2.E K %.%.I W I P Q Q Q Q Q Q Q W W W W W W W W W W W P > 3Xb w 5 U.H.x.K.oX",
"W.C.W.F.f.n.G.b.x.n.x.v.n.E. X/.a.a.b.h.y.8.9 S.B.  - -.| ` &.T W W W P W W W W W W W W W W W P W W W W ! : 1 m.p r C.v.z.`.*X@X",
"b.f.z.z.f.F.L.D.G.G.F.G.G.v.e.P.T.t.h.h.G.(.8.9 B.B.X U ..E T  .R W I W W W W W W W W W W W W W W W Q W Q % #.c.@ M.*X|.+X-X^.l.",
"H.D.V.V.g.l.F.F.G.H.H.H.G.Y.F.P.#XD.D.L./.L.F.8.r M.M.+ %  .| R ..T P ! P I Q W W W W W P ! W W W Q Q / J , m.j 7 V.'.2X:XF.z.D.",
"L.F.F.F.a.a.F.F.G.H.F.G.D.H.E.D.[.#X[.T.F.F.H.F.8.8 C.Z.X %  .| R ..I ! P I W W W W W W W W W W W Q ( J , m.z   8.b.L.:X_.b.U.G.",
"H.z.k.F.y.y.b.F.D.F.G.G.L.H.D.x.'..XL.F.H.L.H.Y.H.5.0 ,XZ.  %  .X.E ' _ W ! W W W W W W W W W ~ ~ Q L . g 4Xa t (.~.'.&XJ.D.F.D.",
"G.D.g.z.j.r.x.H.G.G.D.F.L.n.x.L.oX(.G.L.Y.H.L.H.G.H.N.a 9.l.u & _ R J .. .I W W W W W W W W ~ ~ Y Q , m.7Xz o R.(.~.(. XD.n.G.D.",
"D.D.b.j.D.a.b.H.G.G.G.G.G.n.x.^.oXI.Y.H.Y.L.L.L.I.G.+XN.@ S.(.7 . = E E %...I Q W W W W W Q Q ) / & v 7Xc @ 8.H.H.D.L.`.b.G.F.G.",
"D.G.H.n.L.T.b.G.G.G.G.G.G.G.l. X`.n.R.J.Y.Y.F.L.Y.G..X{.i.6 tX5XX % ` X.E ..` I W W W Q Q ) [ ) J a 8Xc.p o P.Y.v.j. X Xg.G.G.H.",
"T.E.Y.G.U.E.U.b.b.H.H.G.n.z.P.+XK.G.Y.L.Y.T.F.Y.Y.G.oX}.n.d.q uX8X  %  .| E %.E / / / [ [ [ [ J k 6XF s + C.P.b.L.XX=X=Xg.z.G.G.",
"H.Y.E.H.n.U.].H.D.H.b.f.v.D.-X@Xi.b.H.L.H.H.x.H.Y.G..X{.G.].9.9 iX4X  . ' X.T [ [ [ [ [ K J - #.rXc s 3 V.T.z.[.;X'.a.~.[.j.v.H.",
"b.G.H.J.D.n.Y.H./.(.F.L.{.L.^. X~.Y.(. XXX$X$X.X].L.+X XH.].H.8.w jX5X  . | / / [ Y K - < > k xXiX4X8 !.H.V.XX=X^.g.e.a.~.oXY.v.",
"G.z.b.b.H.P.$X X(.{.;X:X`.r.6.l.[./.F.P.(.XX@X*X-X*X1X@X/.XXY.H.d.q lX9XX % : < - & e e 9XyXlXpX3X8 B.;X&X*X#Xs.k.b.y.y.y.`.;X`.",
"&X.X.X'.oX&X-X XD.a.`.$Xa.w.g.z.g.z.s.j.H.D.x.Y./.'.@X:XOX[.}.R.H.8.y jX9XX   . e #.uXuXkXkX4X9 r B.I.~.hX:Xj.w.g.z.a.a.l.l.+X:X",
">X*X.X`.~././.H.D.a.k.z.e.j.V.g.y.k.D.G.E.L.F.G.G.b.U.;X%XF.Y./.Y.V.N.9 yXrX<.6XyXiXfXxX7X@ r 9.H.J.H.n.-X.Xf.s.g.z.l.x.n.n.K.:X",
"~.F.z.v.v.H./.H.n.b.b.f.k.J.s.i.p.i.g.Y.]./.L.H.L./.].{.=XT.D.~.T.V.OXN.0 uXkXpXiXlXrXb 3 r T.T.H.L.L.b.+X+Xb.z.x.F.H.D.I.n.P.@X",
"z.H.H.F.D.G.~.H.n.G.T.x.F.k.i.s.s.p.a.H.}.[.H.n.Y.]./.G.$X Xb.(.Y.b.oX.X8.9 yXlXpXl 3 7.x.G.H.L.H.H.Y.V.+X Xv.G.H.L.G.G.G.D.XXP.",
"D.H.H.F.b.G./.L.D.x.'.~.g.y.a.a.a.a.V.L.T.}.(.P.T.L.G.G.`.=XF.T.E.b.XXoXz.6.+ @ O t z./.H.L.H.L.P.L.H.z..X Xk.D.D.Y.Y.E.D.L. XV.",
"D.H.P.H.D.b.Y.T.F.x.`.'.G.f.j.j.z.D.H.L.F.P./.~.H.H.H.G.K.-XP.D.Y.G.`.'.b.b.z.b.v.t.n./.T.F.L.J.G.D.k.f.L.OXV.D.D.G.E.E.L..XJ.n.",
"F.b.D.H.H.G.b.Y.T.F.oXXX/.U.D.G.G.H.H.F.F.H.U.H.L.J.L.G.L.@X~.D.L.H.~.+XH.D.H.H.z.k.H.Y.Y.J.F.z.f.j.s.w.z.:X'.z.b.b.G./.-X).l.n.",
"L.z.f.g.G.H.F.F.H.^.-X~.I.E.D.H.L.L.H.G.D.F.H.U.H.H.L.G.F..X~.n.D.H.K.*XW.b.G.G.D.G.G.n.U.H.k.f.u.g.k.t.(.:X;X(.L.P.P.-X$XH.I.G.",
"V.V.z.y.z.H.F.H.D.L.=XP.G.Y.F.H.H.H.F.D.G.D.H.G.G.G.H.G.J.%XP.v.b.b.T.;X'.g.G.G.D.D.G.b.Y.z.y.g.f.f.t.`.;XV.x.`.~.{.:XOXV.E.Y.L.",
"a.s.V.s.f.G.D.D.F.P.oXH.G.U.H.F.D.G.D.D.D.G.b.l.D.b.v.j.L.*XK.v.G.n.T.:X%XB.b.U.H.G.D.H.Y.g.f.f.g.t.V.:X^.w.t.k.g.a.+X{.l.Y.H.D.",
"a.i.l.B.a.b.D.H.b.P.`.n.b.z.j.G.H.F.D.D.D.G.f.a.s.g.a.t.'.:X@X(.(.^.$X:X>X&XP.b.H.n.G.P.H.j.u.f.a.e.=X#Xa.g.f.g.g.y.z.oX/.T.Y.k.",
"a.i.B.s.a.b.H.D.b.~.[.G.j.y.u.g.H.F.D.D.H.v.a.a.a.s.a.D.*X.X X'.'. XOX%X;X@X{.[.L.b.H.H.G.v.f.f.e.T.=Xl.y.g.g.g.g.f.y.~.+XT.G.x."
};
