/* XPM */
static char *_74b5f888fdc4eb6df746c0caabc11bbeIaF6u9uaxiZyoWx[] = {
/* columns rows colors chars-per-pixel */
"64 64 237 2 ",
"   c #010102",
".  c #0A0000",
"X  c #05080C",
"o  c #170203",
"O  c #010A16",
"+  c #00111E",
"@  c #191919",
"#  c #270203",
"$  c #380204",
"%  c #370D12",
"&  c #371112",
"*  c #001525",
"=  c #00162B",
"-  c #06122C",
";  c #00192C",
":  c #001B32",
">  c #001C3B",
",  c #291627",
"<  c #002D34",
"1  c #00243C",
"2  c #012838",
"3  c #292929",
"4  c #440103",
"5  c #4C0204",
"6  c #550203",
"7  c #5B0204",
"8  c #4C1518",
"9  c #640204",
"0  c #6C0306",
"q  c #780408",
"w  c #611C1F",
"e  c #4D1B20",
"r  c #5D2123",
"t  c #70272A",
"y  c #001F40",
"u  c #002442",
"i  c #002B46",
"p  c #003649",
"a  c #002D55",
"s  c #003756",
"d  c #00335D",
"f  c #003563",
"g  c #003C64",
"h  c #00316D",
"j  c #003C6B",
"k  c #003E73",
"l  c #004E51",
"z  c #004659",
"x  c #004464",
"c  c #00436E",
"v  c #004C6C",
"b  c #005569",
"n  c #004473",
"m  c #004B74",
"M  c #00457B",
"N  c #004B7C",
"B  c #00537C",
"V  c #005A7B",
"C  c #006E79",
"Z  c #444444",
"A  c #525252",
"S  c #6C6C6C",
"D  c #830509",
"F  c #8C060C",
"G  c #96070C",
"H  c #8D0911",
"J  c #A7080D",
"K  c #B7060D",
"L  c #B90B12",
"P  c #8D3337",
"I  c #9B3237",
"U  c #AD2528",
"Y  c #C40D15",
"T  c #CB0D15",
"R  c #D70D15",
"E  c #D91018",
"W  c #EF0913",
"Q  c #FF0C16",
"!  c #FD0C18",
"~  c #E81119",
"^  c #F5131C",
"/  c #FF151F",
"(  c #FF1A1F",
")  c #FF1720",
"_  c #FF1924",
"`  c #FF1E29",
"'  c #D12E32",
"]  c #FF222C",
"[  c #F22F31",
"{  c #FF2C36",
"}  c #AD4F37",
"|  c #AA663C",
" . c #D36F22",
".. c #9D3B40",
"X. c #AD3D42",
"o. c #FF3B45",
"O. c #965045",
"+. c #936648",
"@. c #B6794B",
"#. c #B97B4E",
"$. c #AF7750",
"%. c #AD765F",
"&. c #CF4E55",
"*. c #FF4751",
"=. c #F34B53",
"-. c #FF4B54",
";. c #FF535D",
":. c #C5704D",
">. c #E05A60",
",. c #FD5A62",
"<. c #F5666F",
"1. c #FE616A",
"2. c #FF747C",
"3. c #E39B05",
"4. c #ECA400",
"5. c #FFBE02",
"6. c #FFC300",
"7. c #FFCA00",
"8. c #FFCC0A",
"9. c #FFD500",
"0. c #FFCC17",
"q. c #FED033",
"w. c #CF9963",
"e. c #D2926A",
"r. c #FBAF70",
"t. c #FFD648",
"y. c #FFE153",
"u. c #FFDC6F",
"i. c #003E97",
"p. c #004787",
"a. c #004D82",
"s. c #005284",
"d. c #005B84",
"f. c #00548A",
"g. c #005B8D",
"h. c #005496",
"j. c #005C93",
"k. c #005D9B",
"l. c #00648C",
"z. c #006988",
"x. c #006394",
"c. c #006995",
"v. c #00649C",
"b. c #006A9B",
"n. c #007796",
"m. c #00739D",
"M. c #004AA3",
"N. c #0054A4",
"B. c #0059A7",
"V. c #005DAB",
"C. c #005DB1",
"Z. c #0063A4",
"A. c #006BA3",
"S. c #0063AC",
"D. c #006AAD",
"F. c #0073A4",
"G. c #0074AC",
"H. c #007DA8",
"J. c #0065B2",
"K. c #006BB3",
"L. c #0067B8",
"P. c #006DBA",
"I. c #0072B4",
"U. c #007BB4",
"Y. c #0074BB",
"T. c #007BBC",
"R. c #0076C1",
"E. c #007CC3",
"W. c #007DC9",
"Q. c #008294",
"!. c #259A98",
"~. c #0086A9",
"^. c #0099AB",
"/. c #0089B7",
"(. c #0083BD",
"). c #0097B8",
"_. c #00A6B9",
"`. c #0083C5",
"'. c #008AC5",
"]. c #0085CA",
"[. c #008CCB",
"{. c #0092C5",
"}. c #0099C6",
"|. c #0092CC",
" X c #009BCC",
".X c #008CD1",
"XX c #0095D3",
"oX c #009CD3",
"OX c #009CDB",
"+X c #00A2CD",
"@X c #00A9CA",
"#X c #00B5C9",
"$X c #00A3D3",
"%X c #00ABD6",
"&X c #00A3DC",
"*X c #00ACDC",
"=X c #00B3D4",
"-X c #00B3DD",
";X c #00BADD",
":X c #00ABE3",
">X c #00B5E3",
",X c #00BBE3",
"<X c #00AFF5",
"1X c #00C7DB",
"2X c #00D1D7",
"3X c #00C3E4",
"4X c #00CCE5",
"5X c #00C5E9",
"6X c #00CBEA",
"7X c #00D6E5",
"8X c #00D3EC",
"9X c #00DBEC",
"0X c #00CCF6",
"qX c #00DAF1",
"wX c #00E4EE",
"eX c #00E4F2",
"rX c #00E9F7",
"tX c #00EDFB",
"yX c #00F4F4",
"uX c #00F4FC",
"iX c #00FEFF",
"pX c #2BFFFF",
"aX c #4FFFFF",
"sX c #838383",
"dX c #8C8C8C",
"fX c #AFAFAF",
"gX c #FFB385",
"hX c #FEE084",
"jX c #FAE596",
"kX c #FCE599",
"lX c #FAE8A4",
"zX c #F7EDAF",
"xX c #F9E9AA",
"cX c #FFF0A1",
"vX c #FFFAA9",
"bX c #D4D4D4",
"nX c #F4F4F4",
/* pixels */
"Z.A.T.D.D.T.`.[.E.oXeX`.C.E.T.Y.K.`.`.].[.E.D.S.S.K.(.9X+XV.B./.G.K.T.#XqX].`.'.*X5X>X|.R.Y.N.M. X6XD.D.I.A.D.I.I.K.J.XX0XoXE.E.",
"K.K.|.E.E.`.`.].P.-XiX8X[.|. X|.T.(.].].].Y.V.S.B.D.,X$Xh.A.S.V.T.C.S.rX6XY.[.E.R.|.-X5X,X9X1X4XqXI.N.K.V.D.T.(.'.{.oXoXoX,X`.E.",
"Y.`.oXOX[.E.E.Y.&X;X/.p X X     T.`.`.].[.Y.V.A.N.+X$XV.(.'.K.M.V.I.;XtX'.`.].L.Y.`.Y.'.*X6XyX!.  X .   N Y.K.S.T.XX|.[.Y.&X;XT.",
"`.'.[.Y.W..X$X6X4XV -   I &.=.  > `.`.E.`.Y.V.B.+XuX3X4X8X$X+X-X|.4XaX;XK.].R.Y.XX[.`.`.E.K.m.< 8 >.>.& * ; J.Y.`.[.`.`.`.T.;X;X",
"9X;X5X6X5X8X8X~.; X P >.o.{ 8 &.  z.b.b.|.>X$X+XiXtX$X'.K.B.K.|.'.$XrX6XT.`.E.'.|.`.].oX`.E.s.w ..U { *.>.o X O U.`.[.`.`.E.I.8X",
"7X+X;X6X3X~.O   t <.o.] ` $ Y ] X ).x.F.}.*XoX X3X-XM.N.C.J.J.V.B.B.oX-XXX|.oX`.K.R.`.OX*X.Xf.t ;.7 G ] ] ;.1.  X + ].].`.'.R.;X",
";XK.E.`.A.  e 2.*.( ) / 4 Y ( /   l.s.n s.`.P.V. X;XK.K.L.J.J.L.D.L.*X[.`.oX|.`.T.[.].E.|.OXx.9 ` / 6 J ) ` ` ;.,.  O j.].`.`.[.",
">X[.E.].G.8 ,.! / / ) 4 L / / /   B F.s.s.W.B.N.%XoXK.I.J.D.L.V.S.`.;X[.E.].'.'.'.[.].`.E.[.b.7 / / ) 5 L ) / _ ` ;.X N g.j.`.].",
"1X%XT.`.c.8 ;.Q / / _ $ Y / / /   M c.x.s.[.P.Y.$XK.S.Y.T.J.V.J.D.$X9X|.E.E.E.R.T.].].`.`.`.x.7 _ ) ) 4 L ) / / _ ,.  M s.N f.E.",
"-X5XT.G.  t -.Q / / ) $ T / / /   s.s.m.g.[.`. X/.V.V.S.`.K.K.E.`. XuXoXK.S.k.f.S.E.[.].].`.x.7 _ ) ) 5 L ) ) / _ ;.o X M g n T.",
"oXtX'.A.& 1.Q / / / _ # Y / / /   a.N G.b.`.U.l 3 v K.Y.[.`.`.].E.+XeX|.T.v.2 3 m `.[.[.`.W.A.7 _ ) _ $ L ) / / / ` ,.O j d n I.",
"[.0X|.A.& ,.! ( / ( ~ 5 ~ / / /   s.s.f.x.[.b S nX3 b.'.'.|.'.`.Y.,X6XY.].u sXnX3 U.`.T.`.XXH.9 _ / ) F q / ( / / ] ,.O j f j n ",
"$X%X;XZ.% ,.Q / ) E 4 ~ / ( / /   s.n c./.;XC S nXA F.G.s.G.|.[.`.5X=XY.W.p S nX3 F.g.N U.[.s.7 _ / / _ D 0 / / ^ ] ;.O j d j k ",
"oXV.,X).& ,.Q ( ) G R ) / / / /   s.m ).iXiXb S bX3 d.f.f.s.(.[.{.rX XK.J.u sXbX@ s.a.s.a.Y.N 9 ` / / ) _ q ^ / ( ] ;.O k d d x.",
"T.M.'.2X% ,.! / ) ) ) / / / / D   n z.@Xz.7XC A fX3 g.B f.a.T.`.*XuX`.V.S.1 S fX@ g.a.M M T.a.# T ) ) / ( ) / / / ] ;.O k j x./.",
"V.C.B./.& 1.Q ) ) ) ) / / ( )   a f.<Xx.a.|.z.r dX@ f.s.N M K.`.8X6XV.D.K.u Z sXX g.N a.a.E.Z.: 0 ` / / / / / / / _ 1.O c.}.z.j ",
"E.B.B.p.. P o./ / / / / / ) q i g.&XG.f.k.OXv Z dX3 g.s.s.N T.].5X-XD.I.K.u A dXX s.N s.a.'.K.h.1 T ) / / / / / ) -.8 X /.0Xc.l.",
",X6XP.i.z.8 ,.Q / / / / _ 0 s m.|.m.f.j.'.&Xv Z dX@ _.c.N f.{.E.;X5XS.S.D.> A dX@ x.s.M a.T.'.D.h.p T _ / / / ( ) 1.  f a.g.v.~.",
"Y.&X,X4X/.. P *.Q / ) _ 0 v @XiXn.h.k.'.*X&Xv Z dX@ ^.2Xs.n (.{.wX6XV.Z.D.> A dXX l.a.M a.K.D.'.[.|.p R ) / / / ,.%   s.k.g.s.f.",
"`.S./.iX=Xn   P *./ q # B b.H.2X@Xx.|.&X:X&Xv Z dX@ z.(.,Xz.=XuXuXqXU.N.J.1 A dXX g.a.N a.K.k.T..X:X@X; # E / ;.%   c f.f.a.f.`.",
"].|.U. X5X'.V t -./ 9 f k.k.f.g.*X=X&X:XOX&Xv Z dX@ l.f./.iX7X*X'.+X;XY.N.y A sX@ s.N a.s.U.S.J.K.*X;XV.; R / 1.  M s.g.N M a.].",
"`.[.[.T.3X=Xg.t -.) 9 j k.Z.Z.h.{.eX:X:X:XOXv       g.N V %X).Y.(.Y.`.,X+X1       x.s.s.s.'.`.Y.P.$X;XD.: R ) ,.  f.x.s.M s.E.`.",
"`.`.[.`.-X;Xg.  P -.9 x Z.A.b.[.OXqX,XXX:X:X&Xz   b.A.N N j.$X[.|.E.J.[.,X-X<   G.Z.s.s.s.`.'.E.(.3X%X`.: R ,.o X a.s.N a.`.].`.",
"].`.[.[.*X>X`.d.P *.9 j b.A.b.+X:XeXeX*X:X:X>Xv   b.G.d.a.N %X+X[.].[.Y.B.OXl   /.F.s.M M `.$XXX5XuX|.`.1 R ,.o x.N M a.a.W.[.[.",
".X`..XXX>X*X`.B P -.6 N b.A.A.$X:XeXiX/.~.H.F.i   v b.V d N ~.H.c.x.c.b.j.h.;   z._.n.V ~.;X5X:X;X9X|.E.1 R ,.o j.N N B f.].[.[.",
"E..XXX[.,X X[.d...-.J z x j g.{.OX9X!.r r r r r r r r r r r r r r r r r 7 6 6 6 6 6 6 6 5 m.].W.T.#Xn.B , W 1.o x.N M N '.E.Y.E.",
"K.E.Y.;X5XT.|.B r -.{ K q   p z.z.C I 2.-.;.;.;.;.;.;.;.;.;.;.;.;.;.;.;.{ / _ _ _ _ _ _ ( 5 B m c < # D ! o.&.  x.a.M B T.J.V.J.",
"Y.D.h.8X-XY.].x.* & U W _ K F G   X.2.{ Q ! ! ! Q Q Q ! Q ! ! ! ! ! ! ! / ( / ( / / ) / ( ( 5 . J G ~ ` K I   i g.N a.s.U.V.D.K.",
"P.M.+XrX'.K.L.P.v.c O # 6 F ) D X.2.{ ! ( / ( / / / / / / ) / / / / / / ) / / / / / / / ) ) ) q Y ~ 0 6   ; 1 a.a.s.s.N E.J.S.S.",
"$X;XiXiX'.B.B.D.K.E.F.m g x o ..2.{ ! / / / / / ( / ) ) / / / / / / ) ) ) ) / ) ) / / ) ) ) ) ! 7 : f z ^.^.z.V s.M m b.`.E.D.I.",
"5X;X9X9X(.D.S.S.V.K.].oXoXz X.o.{ ! / / / / / ) ~ T / ) / ) / ( ) / ) ) / T / / / / / ) ) ) ) _ _ % n N m.iXiX2X/.}.@X-X*X,X-X5X",
"Y.N./.;XI./.I.S.S.V.].-Xs X.2.) Q ( / ( / ( / / / Y Y E / ) ) ) ) ) ) Y L E / / ) / / / / / ) ) _ _ 5 n p.~.iX=X/.6X8X,XOX[.[.(.",
"L.K.T.oXK.I.G.I.S.C.[.s X.2.{ / / ) / ) / / / / / ) ) Y Y T T T T T L E ) ) / / / / ) / / ) ) / / ) ) 5 k G.wXoXW.(.`.[.`.V.B.V.",
"J.I.I.T.D.K.I.I.D.L.[.1 =.o.! / / / / / / / ( / ) ) ) ! ) / / / / ) / / ) / ) / / ) / / / / / / / ) ` 9 n b.2X}.`.{.[.[.|.I.S.D.",
"V.T.T. XI.V.Y.Y.T.E.`.1 >.] / / / ( / / / / ( / / / ) ) ) ) / / / / / / / ) / / / / ( / / / / / ) ) ` 9 g l.iX~.I.{.[.[.|.`.K.D.",
"(.(.I.5X&XM.C.T.|.'.`.> E ) / / ) / / / / ) / / ) ! ) ) ) ! / / / ) / ) ! / / / / ) / ( ) / ) / ) ) _ 9 f ~.iXn.I.{.XX.X|.|.`.K.",
"'.Y.E.4XuXT.D.E.`.W.].: T ) ) ) / / / _ _ ( ( ( ) ) ) _ ( ( ( ( ( ( ( ( ) ) _ ( _ _ ( ( _ / ) / / / / 7 n.iXiX^.G.[.[.|.|.[.].].",
"T.E.[.wXaXuX=X`.`.W.E.1 F / ) / / / [ | #.#.#.#.#.#.#.#.#.#.#.#.#.#.#.#.#.#.#.#.#.#.@.@.} / / / / ) / $ V ).iX_.F.].|.|.|.].]..X",
"(.|.eXaXpXiXiX5X*X*X7Xl F ) / / ^ [ $.w.vXcXcXcXcXcXcXcXcXcXcXcXcXcXcXcXcXcXcXcXcXcXcXkX:.:.! / / ) ^ $ d M b.iX+X(.|.[.|.'.'.T.",
"3XqXtX7X1X%X{.oXXX$X;Xp F / / / [ w.vXcXjXkXkXkXkXkXkXkXkXkXkXkXkXkXkXkXkXkXkXkXkXkXkXkXvXjX:.! / ) ^ $ g m c c.rX%XE..X[.T. X6X",
"+X{.+X`.L.E.].D.m n c + D ) ^ ' w.vXlXlXjXjXjXkXkXkXkXkXkXkXkXkXkXkXkXkXkXkXkXkXkXkXkXkXjXxXlX#.) ! ^ # : a i u ).rX|.T.Y.-XtX9X",
"`.J.Y.T.D.(.x 2 J J J 0 T ) [ 3.y.t.t.u.xXjXkXkXkXkXkXkXkXkXkXkXkXkXkXkXkXkXkXkXkXkXkXkXjXt.y.q. .` ) D F J J G s V yX1X7XtX=XI.",
"'.`.E.(.K.; # Q E G G ~ ^ ! } 6.7.6.6.6.u.zXxXxXxXlXkXkXkXkXkXkXkXkXkXkXkXkXkXjXkXkXxXxXkX5.6.7.3.' / ) L F G ) J   b iXiX'.Y.].",
"|.'.'.'.= # / Y 1 B * G T ' 3.5.6.6.6.6.5.q.q.q.7.u.lXkXkXkXkXkXkXkXkXkXxXlXxXlXlXxXq.q.0.6.6.6.5. .Y ~ # 1 d # ) L   Q.).Z..X].",
"[.Y.I.; R F 7 . s j.: L R O.7.6.6.6.6.6.5.5.5.5.q.lXxXxXlXlXkXkXkXxXzXu.7.0.0.0.0.0.5.6.6.6.6.6.9.4.U ! 5 n g.  # 9 ^ G 2 a.A.`.",
"`.`.* ~ T o * A.f.i   T ~ }  .5.6.6.6.6.6.6.6.6.7.7.7.7.7.8.lXxXhX7.7.6.5.6.6.5.6.5.6.6.6.6.6.6.4.| U / 4 X a.m n   9 ) G O N A.",
"`.`.. / . O G.j.a q / / R Y } r.6.6.6.5.6.6.6.6.6.5.6.5.6.6.6.7.7.5.6.6.6.6.6.6.6.6.6.6.6.6.5.7.4.U L ) / ^ o a.s.g.  9 ~ . a.a.",
"`.].o ^ + '.a.a   J / 5 .     r.6.6.6.6.6.6.6.6.6.6.6.6.6.6.6.6.6.6.6.6.6.6.6.6.6.6.5.6.6.6.6.0.+.. . . G _ $   k M ^.4 R . a.N ",
"oXOX(.O '.OXs   F / 4 f.S.n   e.r.9.7.6.6.6.6.6.6.6.6.6.6.6.6.6.6.6.6.6.6.6.6.6.6.6.5.5.6.6.5.gX+.1 s.j.= F / #   F.%X^.* k.a.a.",
".X|.oX[.W.g.  G ) 4 f.k.M M O # w.r.6.6.6.6.6.6.6.6.6.6.6.6.6.6.6.6.6.6.6.6.6.6.6.6.6.5.6.5.gX+.  z b.f.j.* F ) #   d l.;XP.K.a.",
"R.`.[.{.Z.  D ) % z.G.s.m.v   ( # e.r.6.6.6.6.6.6.6.6.6.6.6.6.6.6.6.6.6.6.6.6.6.6.6.5.r.gXgX+.0 ~   b {.s.x.p H / #   h x.5XXXS.",
"].R.E.`.F.5 ` 7 v @X>XiXV   $ / H ; e.w.7.7.7.6.6.7.6.7.6.7.7.6.7.6.7.6.7.6.7.6.6.6.gXr.e.+.O R ) Y . b ).1X6X  L /   f d m.tX*X",
"rX4X4X;X_.5 ) e n f x.m.  6 ) D   I.X o e.%.%.%.%.%.%.%.%.%.%.%.%.%.%.%.%.%.%.%.%.%.%.$.  p c o L ` L 6 C 7Xf.> F ^ X f c c ^.iX",
"pXrX6X-X~.7 T s T.f s % 0 Y D > u c n ; : : = = = = ; z < = : : ; = < 2 = ; ; ; ; ; ; ; 1 c.v = O G / ] 4 p f f.  ^ O N a.p.d.iX",
"$X(.R.R.Z.6 R p Y.d   T ` . i j.g d j f.Z.&Xj.s.s.g.Z.m.+Xg.m g.g.m ~.b.N a.a.a.N B f.j.f.N j.f.c O F ` L o f n   / O x.p.p.x.9X",
"T.[.[.`.A.6 R s Y.- 7 ) F p k.j g g d v.`.-X'.v.A./.G.k.>X}.j.U.A.f.+X+Xg.j.h.j.j.x.F.G.v.v.v.A.A.G.- ~ ] $ d N   ! O `.a.m /.|.",
"`.[.[.[.A.9 ~ i T.; Y ) o p.j f f f x.|.oX,X*X|.oX[.].`.,XqX[.XXOXE.5X6XY.R.Y.R.R.K.].OX[.[.|.|.|.|.s F _ $ d N . )   OXN V ~.E.",
"'.[.|.[.T.s 4 ~.T.: T G   k j k k v.[.|.'.XXOX$X[.[.[.].|.uX X`.XX].-X;XT.E.E.`.Y.B.`.:XoX'.{.'.[.`.i o ^ 4 v M a 5 x.OXs.~.g.E.",
"[.E.`.[..XE.v.XX{.: T 7 d.A.M a.a.'.].[.'.[..X|.|.|.|.[.{.9X$X`.[.[.$X7X[.E.].].P.Y.].XXXX[.'.Y.K.P.j.- E 5 n.n n d T.*X<Xz.n W.",
"|.T.S.K.].[.[.`.'.p T 0 G.U.M N s.(.[.].`.'.[..X[.[.|.].'.4X%XE.`.[. XrX+XE..X].`.[.].E.XX[.I.J.V.L.K.> E 5 #Xc.s.s.{.tX4XN T.].",
"(.T.Y.B.Y.[.[.[.`.s R 0 v.I.B N F.'.'.`.W.].[.].].].[.].|.wX XR.E.E.oXuX;XI.]..X[.`.].W.XXT.V.J.L.J.B.p ~ 5 x.H.l.m.uX7X(.'.XX|.",
"A.D.(.D.K.`.`.`.'. X< N W.A.N N T.].`.`.`.`.E.T.`.E.E.L.{.rX{.R.].W.oXiXwXU.E.[.].`.`.[.XXK.J.J.J.N.`.yX; h N.a.j f 5X,XT.oX[.`.",
"S.S.U.(.S.R.].[.`. X>XW.E.g.n M T.'.`.`.'.W.L.A.K.K.S.N.>XiX9X*X*X%XqXiXpXwXoXE.[.W.].XX[.L.J.L.J.N.rX8XS.L.J.a.j f I.6X&XoX|.I.",
"S.A.U.G.D.E.].`.E.$X>X`.K.B.p.h.'.[.`.`.[.E.V.S.S.D.S.`.rX2X3X;X;X5X7X9XuX9X,X>X|.E.|.[.`.R.C.J.N.oXrXI.V.K.K.L.M h.B.$X8XoX`.E."
};
