/* XPM */
static char *_dadebf965e144ecfb1a377f99172f6a7YaipjkIt5w7tQZX[] = {
/* columns rows colors chars-per-pixel */
"64 64 230 2 ",
"   c #003E60",
".  c #4F355C",
"X  c #642B56",
"o  c #7A2B5A",
"O  c #6B365E",
"+  c #75345D",
"@  c #563E62",
"#  c #00425E",
"$  c #004663",
"%  c #004B64",
"&  c #004769",
"*  c #004E69",
"=  c #0C4A6B",
"-  c #005366",
";  c #00526C",
":  c #005673",
">  c #005A76",
",  c #005579",
"<  c #005E7B",
"1  c #304565",
"2  c #15696F",
"3  c #00617E",
"4  c #297474",
"5  c #377974",
"6  c #464164",
"7  c #417F75",
"8  c #83325E",
"9  c #872B60",
"0  c #8C3563",
"q  c #8A3466",
"w  c #903669",
"e  c #933D6C",
"r  c #8E4F6D",
"t  c #94446E",
"y  c #965A6E",
"u  c #9B7474",
"i  c #A27F76",
"p  c #3B817A",
"a  c #4A8877",
"s  c #5A9179",
"d  c #679876",
"f  c #75A47E",
"g  c #9A9F7B",
"h  c #A48A78",
"j  c #AA957B",
"k  c #AFAB7D",
"l  c #00538C",
"z  c #00569A",
"x  c #006483",
"c  c #006A85",
"v  c #00638E",
"b  c #006A89",
"n  c #00748B",
"m  c #047688",
"M  c #15798B",
"N  c #006796",
"B  c #007293",
"V  c #007A99",
"C  c #004BA5",
"Z  c #0054A4",
"A  c #005DA4",
"S  c #0055AA",
"D  c #005DAA",
"F  c #005DB2",
"G  c #0063A5",
"H  c #006EA3",
"J  c #0063AC",
"K  c #0069AC",
"L  c #0074A4",
"P  c #0078A8",
"I  c #0065B2",
"U  c #006BB4",
"Y  c #0067B8",
"T  c #006CBB",
"R  c #0073B4",
"E  c #007BB4",
"W  c #0074BC",
"Q  c #007BBC",
"!  c #0076C2",
"~  c #007CC2",
"^  c #007CC9",
"/  c #048498",
"(  c #198395",
")  c #2C8896",
"_  c #2A919C",
"`  c #0083A5",
"'  c #0089A7",
"]  c #0096A8",
"[  c #1392A7",
"{  c #0089B6",
"}  c #0083BD",
"|  c #0098B9",
" . c #2994A5",
".. c #3897A5",
"X. c #00A6B9",
"o. c #34A8B4",
"O. c #4F9488",
"+. c #6B9B82",
"@. c #70AA8E",
"#. c #459DA8",
"$. c #46A3AD",
"%. c #4EA9B3",
"&. c #56ACB5",
"*. c #59B3BA",
"=. c #64B6BC",
"-. c #0083C5",
";. c #008AC5",
":. c #0084CA",
">. c #008BCA",
",. c #0092C5",
"<. c #009AC5",
"1. c #0093CC",
"2. c #009BCD",
"3. c #0085D1",
"4. c #008CD2",
"5. c #0094D3",
"6. c #009CD4",
"7. c #0096DA",
"8. c #009CDB",
"9. c #00A0C6",
"0. c #00A3CC",
"q. c #00ACCD",
"w. c #00B1CE",
"e. c #00A3D4",
"r. c #00ACD4",
"t. c #00A3DB",
"y. c #00ABDC",
"u. c #00B2D4",
"i. c #00BAD6",
"p. c #00B4DC",
"a. c #00BBDC",
"s. c #00A4E1",
"d. c #00B5E4",
"f. c #00BCE3",
"g. c #56B9C1",
"h. c #65BDC3",
"j. c #00C7DC",
"k. c #3EC7C7",
"l. c #00C3E4",
"z. c #00CCE5",
"x. c #00C5E9",
"c. c #00CCEB",
"v. c #00D5E6",
"b. c #00D4EB",
"n. c #00DAEC",
"m. c #00CBF1",
"M. c #00D8F1",
"N. c #00E1EE",
"B. c #00E4F3",
"V. c #00E8F7",
"C. c #00ECFB",
"Z. c #00F2FD",
"A. c #00FDFE",
"S. c #30F5F7",
"D. c #41C7C7",
"F. c #45C8C8",
"G. c #4CC9C9",
"H. c #54CBCB",
"J. c #5BCDCD",
"K. c #5CD0CF",
"L. c #5FD1D0",
"P. c #63CECE",
"I. c #6CC8CA",
"U. c #75C7CA",
"Y. c #70CCD1",
"T. c #66D0D0",
"R. c #6CD1D1",
"E. c #6FD9D7",
"W. c #74D3D3",
"Q. c #7BD5D5",
"!. c #79D9D8",
"~. c #53FFFF",
"^. c #74FFFF",
"/. c #8EB585",
"(. c #B2B681",
"). c #B294A6",
"_. c #BEB5BE",
"`. c #C0AFBB",
"'. c #A6C688",
"]. c #B7CC87",
"[. c #BFDB86",
"{. c #B9D288",
"}. c #BFDA88",
"|. c #BBD592",
" X c #BFE389",
".X c #C2DC86",
"XX c #C3DC8A",
"oX c #C9DF8F",
"OX c #C5DD91",
"+X c #C4E385",
"@X c #C3E289",
"#X c #C9E28B",
"$X c #CBE193",
"%X c #C8E19C",
"&X c #D5E89D",
"*X c #CDD9BA",
"=X c #D7E7A6",
"-X c #CFBBC5",
";X c #83D6D6",
":X c #89D6D6",
">X c #85D8D8",
",X c #86D9D8",
"<X c #8CDADA",
"1X c #94DBDB",
"2X c #9ADCDC",
"3X c #A4DDDD",
"4X c #A9DCDC",
"5X c #BAD5D3",
"6X c #8EE0DF",
"7X c #93E0DF",
"8X c #96E2E0",
"9X c #AEE0E0",
"0X c #B9E3E3",
"qX c #C8CDCE",
"wX c #C7D1CD",
"eX c #CED1D2",
"rX c #C4D9DB",
"tX c #D4D6D6",
"yX c #D5DCDB",
"uX c #D9E0DF",
"iX c #C6E6E6",
"pX c #DCE3E3",
"aX c #D8EAEA",
"sX c #E2E6E6",
"dX c #E5EAEA",
"fX c #ECEDED",
"gX c #F3EFEF",
"hX c #F4F3F3",
"jX c #F8F3F3",
"kX c #FCFCFC",
/* pixels */
"G H Q J J Q ;.>.^ 2.B.-.F ~ } W U -.:.:.;.! J J J U } n.0.A G } E I Q w.M.>.-.;.y.x.d.1.! R Z C 2.c.K K R G K R R I I 5.m.6.^ ~ ",
"U U 1.~ ~ -.-.:.T p.A.b.>.1.1.1.Q } :.:.:.W D J G U f.e.z G G D W J G Z.c.Q :.~ ! 1.p.x.f.b.j.j.n.U Z U J K } } ;.,.2.6.e.f.-.~ ",
"W -.6.6.>.~ ! W t.f.,.a.b.t.W J ~ ;.~ :.>.W J G Z 0.6.z c 3 c M M 3 c ] | -.:.U W -.W ;.y.c.A.~.n.U Q R U ~ U D Q 1.1.>.W t.a.Q ",
"-.-.1.! ^ 4.e.c.z.} C J 6.t.6.Q I :.-.~ ;.W D A 0.B.' m %.I.W.W.W.W.I.%.m { ~ W 1.>.-.-.-.U ;.A.N.6.5.,.~ U T W -.>.:.:.-.Q a.a.",
"n.a.c.c.l.b.n.l.,.R S W W U } 2.f.0.r.` n / n / ] m %.Q.E.K.H.H.G.H.J.W.!._ 3 c b b B ` L Q T v.V.-.>.;.-.:.:.;.>.:.>.:.-.-.R c.",
"v.0.p.c.j.r.-.Y -.-.-.Q ! ! z G j.X.n &.I.P.I.=.=.:X6XW.J.H.G.F.F.G.H.J.R.,XU.&.&.h.W.I.g.) N u.Z.;.! ^ :.:.>.-.-.-.>.-.-.:.Q p.",
"a.U ~ -.^ ! T J K E 1.-.Q >.} Q ` / W.T.J.J.L.!.<X2X<XQ.J.Y.F.F.F.k.G.J.R.Q.1X8X<X!.T.J.R.!.#.<.C.a.~ -.:.:.>.:.:.-.:.>.:.;.-.>.",
"d.>.! >.3.3.Y S G U Q -.-.>.1.| n W.K.H.G.G.H.R.:X7X1X;XW.iX:XF.D.F.F.J.W.:X2X2X,XR.H.H.H.J.!._ a.n.-.:.>.>.:.-.-.:.:.;.1.:.-.:.",
"l.r.W -.>.1.Q U E U D I ! <.B c W.R.J.F.F.D.F.T.>X1X1X;X;XaX:XQ.J.D.G.J.W.,X2X1X;XP.G.F.G.H.T.W.c X.;.-.>.:.>.:.-.:.:.:.1.-.~ ~ ",
"p.x.-.-.-.>.5.4.W G J P V < M U.>XR.H.D.F.F.F.J.Q.2X1X:XP.J.D.7X>Xk.G.J.!.<X2X1X!.J.F.F.G.H.R.,XU.n < B E :.:.-.>.>.:.>.-.K R Q ",
"6.C.;.Q -.;.t.8.! W x m %.U.6X6X,XW.P.F.G.F.F.J.Q.1X2X:XP.G.F.H.F.D.G.J.Q.1X2X<XY.J.F.F.F.J.!.,X6X:XU.*.c B 1.-.-.-.>.>.U A K Q ",
">.m.<.Q ~ ~ 4.6.>.` m !.E.R.Q.<X1X;XT.F.F.F.D.H.W.1X3X<XR.G.F.G.F.G.P.P.Q.1X1X,XR.H.F.F.G.R.:X1X2X,XW.R.Q./ { -.-.-.>.:.I J U J ",
"e.r.d.W -.5.5.5.,.n W.J.H.J.W.,X1X<XW.J.F.F.F.H.R.1X2X<XY.H.F.F.D.G.J.R.:X2X1X;XP.G.D.F.J.Q.1X2X1X;XP.H.K.R.n ;.-.>.-.>.R G K D ",
"2.G l.e.Z ^ y.6.} ..E.H.G.F.J.!.1X1XQ.P.F.F.F.F.P.Q.1X<XW.H.F.F.G.Y.J.R.1X4X1XQ.J.F.D.G.P.:X1X2X<XW.H.G.H.E. .,.:.:.:.:.W Z A 6.",
"E C ;.C.W C 1.6.P $.E.H.F.F.H.R.:X1X:XW.H.F.F.F.J.Q.9X1XQ.I.H.H.H.G.P.W.<X2X2X1XH.F.F.H.W.<X2X1XQ.J.G.F.H.T.$.<.! ! ^ Q W Y y.c.",
"S F Z e.x.U W 5.c I.W.J.G.D.F.J.Q.<X1XQ.J.F.D.F.H.Q.iX1X0XW.D.F.F.G.3X9X1X2X<XQ.H.D.G.P.Q.1X2X,XR.G.D.G.J.W.*./ l.p.i.2.p.M.r.N ",
"~ D Z C x.B.-.v c :X,XW.H.D.D.G.R.,X1X,XR.P.H.F.G.R.<X<X1XP.F.F.H.P.aXaX1X1XQ.J.G.G.H.W.<X2X1XQ.J.D.D.H.R.!.Q.3 | 0.p.p.c.Z.u.<.",
"f.z.I C u.n.n M Q.<X1X>XR.G.F.F.H.Q.<X<XW.Q.J.D.P.P.>X1X;XP.G.F.H.F.Q.2X:X1X1XQ.F.G.J.Q.1X1X:XT.G.D.G.P.;X:X<XU.n V ! ^ >.e.p.d.",
"W e.f.v.6.n  .!.Q.,X1X1X;XP.H.D.G.T.;X<X:XW.F.H.4XW.Q.1X>XR.F.F.H.F.P.;X2X2X,X3XG.H.R.:X1X1XW.H.F.G.P.!.1X1X:X!.!...' 4.t.8.5.:.",
":.J } A.u.m !.L.P.!.<X2X<X!.J.G.F.J.W.,X:XY.P.1XhX3XQ.<X>XR.H.F.D.J.Q.;X1X2XR.H.G.J.!.1X1XQ.P.G.G.J.W.:X1X:XW.P.T.!.( 8.6.>.>.4.",
":.1.Q <.w.) E.H.H.P.Q.<X1X<XW.H.G.G.P.;X,X;XP.H.2XP.R.:X:XQ.Y.F.F.G.Q.:X1XW.9X:XG.R.:X1X<XW.H.F.H.R.:X<X<XQ.P.J.H.W.[ 6.:.-.^ :.",
"-.>.>.Q q.( !.J.G.G.P.W.<X1X,XY.H.G.J.W.:X<XQ.G.J.H.W.:X:XQ.J.D.D.P.W.:X<XW.T.H.J.W.<X<XQ.P.G.H.T.;X1X<X!.P.H.G.H.E.] 1.-.:.-.-.",
":.-.1.-.9.( Q.R.J.G.G.P.!.<X1X;XT.H.G.P.!.,XQ.J.G.G.R.;X:XW.P.J.G.9X1X;X,XW.H.H.P.:X<X,XR.H.G.P.Q.<X<XQ.P.G.G.H.T.!.n -.:.-.:.:.",
"-.-.>.>.9.m <XQ.W.J.G.H.T.Q.<X<X!.P.H.H.W.:XQ.R.G.Q.W.W.:XQ.J.D.F.1XQ.,X;XY.H.J.W.<X<X!.J.H.P.W.:X<XQ.P.H.G.J.T.W.Q.c } :.:.:.>.",
":.:.4.5.' ) 8X1X<X!.K.H.H.T.Q.<X:XW.J.J.P.Q.:XQ.H.1X:XW.>X:XP.P.J.J.Y.:X;XT.J.P.;X<X;XR.H.J.W.;X,XQ.R.H.G.J.W.,X<X<Xc V :.:.>.>.",
"^ >.5.6.c U.<X2X2X<XW.P.H.J.R.Q.<X,XW.J.J.W.:XQ.T.H.H.Q.:X;XP.3XP.T.:X<XQ.R.W.W.,X,XW.J.J.R.;X:XQ.T.H.H.P.W.,X2X1X1X=.< -.Q W ~ ",
"U } W | %.!.Q.,X1X2X1XQ.T.H.J.Y.;X,XQ.R.J.P.W.,XW.J.H.T.Q.Q.Y.2XG.R.1X:XR.P.:X:X,XQ.P.J.P.!.:X!.Y.J.H.P.!.<X2X1X<XQ.,X..L I I I ",
"T U l ] I.R.T.W.;X<X1X1X;XR.J.J.Y.;X,XQ.P.J.W.:XQ.Y.P.R.Q.;XW.W.J.T.<XQ.,XY.:X;X;XW.J.P.Q.;XQ.R.J.J.R.Q.<X2X1X,X!.R.E.I.N G J K ",
"T z <.%.I.K.J.J.T.W.,X1X1X,XW.P.J.W.;X:XW.P.Q.<XQ.Q.P.P.Q.;XW.H.H.W.;X:X2X1XW.1XQ.P.P.W.;XQ.Y.J.J.R.;X1X1X,XQ.R.P.J.P.R.L I J G ",
"e.f.Z.S.#.W.K.H.H.K.R.;X,X1X,XQ.P.K.W.Q.;XQ.iXiX3X:XJ.R.W.:XW.J.J.R.;X2XY.Q.Q.Q.W.P.W.Q.!.R.P.P.W.,X1X<X;XW.P.H.H.H.R.*.-.! U R ",
"x.p.v.n./ Q.R.T.J.H.J.T.Q.,X<X,X!.R.T.W.;X:X0XiXQ.W.T.J.Q.1XR.T.Q.Q.W.R.Q.;XQ.1XR.R.Q.Q.W.P.R.Q.,X<X,XQ.R.P.H.H.J.K.W.X.d.f.p.x.",
"! Z { a.B *.,X!.W.T.J.H.P.W.;X,X:XQ.W.R.W.Q.,X;XR.:XQ.P.R.Q.W.P.J.Q.:XQ.W.Q.Q.1X2XW.Q.Y.R.R.Q.,X<X;XQ.T.J.J.J.R.W.!.h.9.6.>.;.-.",
"Y U } 5.J #.8X<X,X;XW.R.P.J.R.Q.>X:X;XW.W.W.Q.Q.W.;X!.R.R.W.W.T.J.4X2XR.;XQ.;XR.1XQ.W.R.W.Q.,X,XQ.R.P.J.P.R.W.>X>X<X/ 1.-.D Z D ",
"I U R Q G #.6X<X1X<X<XQ.W.R.K.R.W.Q.>XQ.W.Y.Q.;XQ.W.4X>XR.Q.W.K.J.R.W.W.W.:XW.Q.Y.W.R.W.Q.:XQ.W.R.J.P.R.W.>X,X1X,X6XB 1.,.W K K ",
"J Q Q 2.R  .,XQ.Q.>X:X:X>X;XW.R.R.R.W.Q.Q.W.Q.1XQ.W.Q.Y.J.;XK.J.G.G.J.R.Q.<XW.Q.W.W.W.Q.Q.!.Y.T.R.R.Q.:X:X,X:X;X!.>XV >.1.-.U I ",
"} } R l.y.v !.R.W.W.Q.;X>X>X,XQ.W.W.W.W.Q.Q.Q.W.Q.W.T.T.Q.iXaXaXaXiX;XJ.P.Y.W.W.W.Q.Q.Q.W.W.W.W.!.;X:X>XQ.Q.W.W.W.W.' 4.1.1.-.U ",
";.W ~ c.Z.P #.!.E.W.W.!.;X:X;X>X;XQ.W.W.W.W.Q.Q.W.R.P.0XhXjXjXhXgXgXdXrXR.P.Q.Q.Q.Q.Q.W.W.Q.Q.;X:X,X,XQ.!.!.!.E.>X$.2.>.1.>.:.:.",
"Q ! 1.N.~.A.X. .=.h.I.Q.<X7X6X<X<X:X>X!.W.W.W.Q.R.R.aXjXhXjXkXjXhXgXsXsXrXP.2X9XQ.Q.Q.Q.;X,X,X1X6X1X6X,XW.I.h.*.] ;.1.1.1.:.:.4.",
"-.,.B.~.S.A.A.x.e.| X.o.#.$.*.;X8X7X1X:X>XQ.W.Y.J.0XgXfXkXkXkXkXkXhXdXyXyX5XR.Q.!.Q.;X1X1X1X1X,XU.&...' N N 0.A.a.Q 1.>.>.>.;.Q ",
"z.n.Z.z.j.e.,.2.6.6.f.j.N.j.B 3 ( =.<X7X:X:XQ.J.R.fXfXjXkXkXkXkXkXkXfXyXtXtX:XP.Q.<X1X2X8XU.#.x < ` r.t.1.;.Q r.Z.r.-.4.>.Q <.c.",
"0.{ 0.-.Y ^ -.~ Q ~ ! T 3.6.l.r.B : b *.,X1X,XJ.4XfXfXjXkXkXkXkXkXhXdXyXeXtX5XR.1X2X7XQ.) < : | d.f.d.5.4.6.5.Q q.C.6.! ! p.V.n.",
"-.Y W Q I ;.,.:.:.-.>.:.:.! Z 2.e.L : > M I.8X!.iXfXfXgXkXkXkXkXkXgXpXyXwXtX5X6X7X7X&.3 : B d.m.s.7.s.8.6.8.>.>.~ u.C.j.v.C.r.E ",
">.-.} } U R ;.,.>.>.>.>.>.>.>.1.m.:.{ >   % o.g.rXsXfXhXjXkXkXkXhXgXdXtXwXeXrXI.I...# % x 6.d.d.t.8.s.s.5.;.>.:.:.} a.^.A.;.W -.",
"1.:.;.;.J U Q >.:.>.>.-.~ ;.<.} | | ' 5 7 a s d 5XdXdXfXjXkXkXkXhXfXdXtXwXrX_.a a 5 4 4 m P E | | ,.1.6.>.>.6.8.5.Q <.A.i.! 4.>.",
";.W R } P P [ _ ) ) O.O.@.@.k /.'.'.].XX#X#X#X+X=XpXsXfXhXhXjXjXhXhXsXeXqXeX*X+XXX#X$X}.|.|.].'.'./././.@.O.( / / ` | j.{ -.>.;.",
";.V p +./.(.'.].|.OXOXoX@X@X X#X.XXXXXXX.XXX.X.X#XuXpXsXdXfXfXgXfXfXtXwXeXtX%X+X@X@XOX@X@X}..X XXXOX$X&X$X$X%X%X|.].'./.O.M B ,.",
"> f &X&X$XOXoXXXXX}.XX[.}.}.[.[.+X X#X}.{.[.].{.{.*XaXpXpXpXsXsXuXtXeXwXtXwXk j h i h (.}.+X+X[.}.}.}.XX}.}.}.XXOX$X$X$X=X=Xf l ",
"| 5 |.$X#X.X}.}.}.}.}.}.}. X@X@Xk j u y y t t r r r `.dXpXyXyXtXyXwXeXyX_.+ 0 0 w w q w y ).k  X@X@X}.}.}.XX}.}.}.}.XX#X@X'.5 { ",
"5.v - 5 f .X+XoX.X#X@X@X}.].h y w q w e e e e e w o o ).pXpXuXtXyXuXyX).+ 9 e t e t t e w q q y i k }. X#X#XXX.XXXXX'.s 2 $ { :.",
">.<.x $   3 s d 7 5 g k y + o 0 w 0 0 0 e e e t e t e q r ).-XqX-X).r o w t e e e e e w 0 q 0 0 9 q r y g a 2 2 4 2 - $ * ` ! :.",
"! :.>.| V & * ; * & & = . + + + @ 6 6 6 @ + w e t e e 0 o X . @ . . o 8 e e t e w 0 O 1 1 = 1 6 6 + O . * & * * ; * : z 2.x.1.! ",
":.! ! ~ >.| x x < > - * ; ; : ; ; * - * * * 6 O + + O 1 % % % % % - ; 1 O O + O 6 % - % % % - ; : : : - * ; > 3 3 x G D G a.C.p.",
"B.v.z.a.v.M.j.c < > : : > < < < > ; - * % * ; ; ; : > : ; % % % % - ; : < > : : ; ; - % % ; ; < 3 3 < : : : > 3 v W J J R Q b.A.",
"S.V.c.p.6.y.t.-.V > > > > x b b < : * * * * ; < x x x 3 : % $ $ % % : 3 x c x < > ; % % % * : 3 b b x < : > < z K W R } :.^ <.A.",
"r.-.Q ! ~ >.t.>.:.V : , > < b b x > % % % % : < b b b x : % % $ % % > x b b b c : ; % % % ; > b b c < > : 3 L Q Q -.>.:.^ ^ 2.n.",
"! ;.>.-.~ :.t.1.^ :.' > > > x b c 3 ; % $ % ; < b b b c > % % % $ % > c b c b 3 : % $ % * : x b b x > = m u.! :.1.1.3.:.>.-.x.2.",
"-.1.>.;.~ :.e.1.~ Q a.<.< : < x b x > - % % % > x b b x > % $ $ $ % < x b b b < ; % % % : 3 b b 3 > : b j.l.W -.-.5.5.8.-.<.l.-.",
"-.>.1.>.:.~ 5.6.>.Q p.f.-.N > 3 c b < ; * % * : x b b b < - $ % % - < b b b x : ; % % ; > x x x : > L I 1.v.{ -.:.:.8.8.1.l.,.^ ",
">.~ -.>.>.:.~ 5.6.;.b.x.s.4.E x x b x > * % * ; < b b b 3 - # % % - x b b b < ; % * ; : 3 c < > v E K C T A.i.W ~ ~ ^ t.C.u.R ^ ",
"1.Q I U :.>.>.-.>.e.C.2.4.8.-.-.P b c 3 : * % - > x b b x - % # $ ; x b b x < ; ; ; ; < x 3 x H F U R S y.A.C.p.1.2.2.Z.B.>.>.:.",
"} Q W A W ;.>.>.~ <.B.<.:.5.;.;.>.-.V x > ; ; * : x c b x ; % % % : x b b x : ; ; : > < x V K U I I S p.Z.} Q p.e.a.A.v.-.6.5.1.",
"G K -.K U :.-.;.:.2.m.>.^ 5.;.>.:.:.:.Q N < ; ; : < b b x > % % % < b b b < ; ; ; > n { ;.I J I U S -.A.r.C S U U U c.p.W 5.>.-.",
"J G E } J ! >.:.-.6.p.^ ~ W ! ~ >.-.-.-.;.-.L , l x c x c > - ; : < x b x c n b V E -.5.>.Y F I I Z B.b.I U I U T D Q c.t.e.1.W ",
"J J E P J ~ :.;.! e.f.:.T D F Y ;.>.;.-.>.! G J J K P { X.| w.u.q.q.X.X.j.v.l.d.1.~ 5.>.:.! I I Z 8.B.R D U U U U J D e.b.5.:.Q "
};
