/* XPM */
static char *_055d5334b52407cfc1f7e2dbaaab0a5TiqpDtLHnNFPOUIY[] = {
/* columns rows colors chars-per-pixel */
"64 64 12 1 ",
"  c None",
". c black",
"X c gray47",
"o c #A3151C",
"O c #ED1C24",
"+ c #9C5A3C",
"@ c #FF666E",
"# c #FFC20E",
"$ c #E5AA7A",
"% c #B4B4B4",
"& c #F5E49C",
"* c white",
/* pixels */
"          .....                                  .....          ",
"        ...@@@..                                ..@@@...        ",
"      ...@@OO.@.                                .@.OO@@...      ",
"    ...@@OOO.OO.                                .@O.OOO@@...    ",
"   ..@@OOOO.OOO.                                .OOO.OOOO@@..   ",
"   .@OOOOO.OOOO.                                .OOOO.OOOOO@.   ",
"   .@OOOOO.OOOO.                                .OOOO.OOOOO@.   ",
"  ..@OOOOO.OOOO.                                .OOOO.OOOOO@..  ",
"  .@OOOOOO.OOOO.       ..              ..       .OOOO.OOOOOO@.  ",
"  .@OOOOOO.OOOO.      .%%.            .%%.      .OOOO.OOOOOO@.  ",
"  .@OOOOO.OOOOO.      .%*.            .%*.      .OOOOO.OOOOO@.  ",
"  .@OOOO.OOOOOO.      .%%.            .%%.      .OOOOOO.OOOO@.  ",
"  .@OOOOOOOOOOO.      .%%.            .%%.      .OOOOOOOOOOO@.  ",
"  .@OOOOOOOOOO..      .XX.            .XX.      ..OOOOOOOOOO@.  ",
"  .@OOOOOOOOOO.       .XX.            .XX.       .OOOOOOOOOO@.  ",
"  ..@OOOOOOOO.        .XX.            .XX.        .OOOOOOOO@..  ",
"   .@OOOOOOO.         .XX.            .XX.         .OOOOOOO@.   ",
"   ..@OOOOO.          .XX.            .XX.          .OOOOO@..   ",
"    ..@OO..           .XX.            .XX.           ..OO@..    ",
"     .@OO.            .XX.            .XX.            .OO@.     ",
"     .@OO.            ....            ....            .OO@.     ",
"     ..@O.             ..              ..             .O@..     ",
"      .@O.             ..              ..             .O@.      ",
"      .@O.             ..              ..             .O@.      ",
"      .@O.        ............................        .O@.      ",
"      .@OO...    .@@@@@@@@@@@@@@@@@@@OOOOOOOOO.    ...OO@.      ",
"      ..@OOO.....@@OOOOOOOOOOOOOOOOOOOOOOOOOOOO.....OOO@..      ",
"       ...ooOOO.@@OOOOOOOOOOOOOOOOOOOOOOOOOOOOOO.OOOoo...       ",
"         ....o.@@OOOOOOOOOOOOOOOOOOOOOOOOOOOOOOOO.o....         ",
"             .@@OOOOOOOOOOOOOOOOOOOOOOOOOOOOOOOOOO.             ",
"            .@OOOOOOOOOOooOOOOOOOOOOOooOOOOOOOOOOOO.            ",
"           .@@OOOOOOOOOOOoooOOOOOOOoooOOOOOOOOOOOOOO.           ",
"          .@@OOOOOOOOOOOOOOoooooooooOOOOOOOOOOOOOOOOO.          ",
"          .@OOOOOOOOOOOOOOOOOOOOOOOOOOOOOOOOOOOOOOOOO.          ",
"          .@OOOOOOOOOOOOOOOOOOOOOOOOOOOOOOOOOOOOOOOOO.          ",
"          .OOOOOOOOOOOOOOOOOOOOOOOOOOOOOOOOOOOOOOOOOO.          ",
"          .OOOOOOOOOOOOOOOOOOOOOOOOOOOOOOOOOOOOOOOOOO.          ",
"          .oOOOOOO++++++++++++++++++++++++++++OOOOOOo.          ",
"          .oOOOOO++&&&&&&&&&&&&&&&&&&&&&&&&&&++OOOOOo.          ",
"          .oOOOO+&&&&&&&&&&&&&&&&&&&&&&&&&&&&&&+OOOOo.          ",
"          .oOOO+&&&&&&&&&&&&&&&&&&&&&&&&&&&&&&&&+OOOo.          ",
"      .....oOO+&&&&&&&&&&&&&&&&&&&&&&&&&&&&&&&&&&+OOo.....      ",
"    ..OOOOoOO+#####&&&&&&&&&&&&&&&&&&&&&&&&&&&####+OOoOOOO..    ",
"   ..Oo...OoO+######&&&&&&&&&&&&&&&&&&&&&&&&&&####+OoO...oO..   ",
"  ..Oo.  .oo+############&&&&&&&&&&&&&&&&&&########+oo.  .oO..  ",
" .Oo...  .Oo+###########&&&&&&&&&&&&###############+oO.  ...OO. ",
".Oo..   ..Oo++################&&&#################++oO..   ..oO.",
".O..   .OOOoo+$###################################+ooOOO.   ..O.",
".O.   ..Oo....$##################################$....oO..   .O.",
" .   ..Oo.   .$$################################$$.   .oO..   . ",
"    ..Oo.    ..$$##############################$$..    .oO..    ",
"   ..Oo.     .O.$$##########################$$$$.O..    .oO..   ",
"   .Oo.     ..Oo.$$########################$$$$.oOO..    .oO.   ",
"   .Oo.    ..Oo. ..$$$$$$$$$$$$$$$$$$$$$$$$$$.. .oOO..   .oO.   ",
"   .O.    ..Oo..  ............................  ..oOOO.   .O.   ",
"   .O.   .OO..                                    ..OO..  .O.   ",
"   .O.  ..Oo.                                      .oOO.  .O.   ",
"   .O.  .OO.                                        .OO.  .O.   ",
"   .O.  .Oo.                                        .oO.  .O.   ",
"    .   .O..                                        ..O.   .    ",
"        .O.                                          .O.        ",
"        .O.                                          .O.        ",
"        .O.                                          .O.        ",
"         .                                            .         "
};
