/* XPM */
static char *_7fa513351d34ddd930851380d9f050b1EbzdbSc8LXFEp8L[] = {
/* columns rows colors chars-per-pixel */
"64 64 28 1 ",
"  c None",
". c black",
"X c #42281E",
"o c #663B29",
"O c #1B4F16",
"+ c #75412A",
"@ c #79422A",
"# c #7B462C",
"$ c #0A0F4A",
"% c gray34",
"& c #884E32",
"* c #955838",
"= c #9C5A3C",
"- c #399432",
"; c #6EAB38",
": c #22B14C",
"> c #A68530",
", c #8EC213",
"< c #95C91A",
"1 c #A8E61D",
"2 c #FFC20E",
"3 c #FFF200",
"4 c #B5846F",
"5 c #E5AA7A",
"6 c #4D6DF3",
"7 c #00B7EF",
"8 c #60F7FC",
"9 c #F5E49C",
/* pixels */
"                           OOOOOOOOOO                           ",
"                        -OO1111111111O                          ",
"                      OO111,,,,,,,,111O                         ",
"                     O11:,,,:::,,,,,111O                        ",
"                    O1::,,-::::::::,,,11O       OOOOOOOOO       ",
"                    O---OOOOOO:::::::,,1O     OO111111,,,,O     ",
"                   O-OOOO     OOO:::::,,OO  OO11,,,,,,,::,,O    ",
"                   O-O           OO::::,1O  O1,,::::::::::,,O   ",
"                   OO              O:::,,O O1,,::::::::::::,OO  ",
"                                    O::,,O O,:::::::OOOOO::,-OO ",
"                                     O::,OO1,:OOOOOOO   OOOOO-O ",
"                                     O:::OO1:O              OOO ",
"                          OOOOOOOOOO  O::O1-OOOOOOOOOO          ",
"                        OO11111111,OO  O:OOO,,,,,,,,,OO         ",
"                      OO111,,,11,,:1,O  OOO,,:::::::,,OOO       ",
"                     O11,,,,,::::::::OOOOOO,::::::::,,,,OO      ",
"                    O11,,,,,:::::::OOO-OO,OO::::::::::,,,,O     ",
"                   O111,,,,::::::OOO-.O1<,OOOOO:::::::::,,,O    ",
"                  O1,,,,,:::::::OO-  O1<<:O+O+OOOO::::::::,,O   ",
"                  O1,,;:::::::OOO   OO,:::O+++++OOOO::::::::,O  ",
"                 O1,,,::::::OOO    O11::::O-+.=++O OO:::::::,O  ",
"                O1,,,:::::OOO      O,:::::O.+%=oo.  OO:::::::O  ",
"                O,,,::::OOO       O,,::::OO ++==oo    OO::::::O ",
"               O,,,,:OOOO.        O,:::::O   .o4=oo     OO::::O ",
"               O,,,:OO.          .O,::::OO     o4=oo      OO::O ",
"               O,::OO            O<::::-O      o4==oo       OO:O",
"               O::OO             O,:::-OO       o4=oo         OO",
"               O:O-              O,::OOO        o4===o          ",
"               O:-          XXX  O<:OO           o4=4oo         ",
"               OO.         XX4XX O<O             o4=4oo         ",
"               O         XX44444X.O               o4oooo        ",
"               O        X44444444O4X              o=o=4o        ",
"                       X444o444o4O4XX             oo==4o        ",
"                      X=o4o=o4o=o4o==X            o==4=oo       ",
"                     X===o===o===o====X           o===ooo       ",
"                    X==================X          .o4=o=o       ",
"                   XX===X===X===X===X===X          o4oo4oo      ",
"                  X++X=X+X=X+X=X+X=X+X=X+X         4====oo      ",
"                 X++++X+++X+++X+++X+++X+++X        o===4oo      ",
"     .          X++++++++++++++++++++++++++X       o4==ooo      ",
"    .3.        X++X+++X+++X+++X+++X+++X+++X+X     o4==4o=o      ",
"    .7.       XX+X5X+X5X+X5X+X5X+XXX+XXX+X5X+X    o+====+o      ",
"   .737.     XX XX55X555X555X555X5X8X8X5X55XXXX   o+==+=+o      ",
"   .777.         X5555555555555555X888X5555X      o+==+=+o      ",
"  .67777.        X555555XXXXXXX555X888X555X       o@*==++o      ",
"  .67377.         X55555X888$8X555X888X555X       o#&===+o      ",
" .6777777.        X55555X888$8X555X888X55X        o====++o      ",
" .6777777.         X5555X888$8X555XXXXX55X        o=====+o      ",
" .6777773.         X5555X88888X5555555555X        =====++o      ",
" .6777377.         X5555X8$$$8X5555555555X       o====+++o      ",
" .6737777.         X5555X88888X5555555555X>>>>>>>o===++++o      ",
" .6777777.     >>>>X5559X888$8X5555555555X999999oo=++==++o      ",
" ..67777..  >>>>9XXXXXXXXXXXXXXXXXXXXXXXXXXXXXX9o====++++o      ",
"  .67737.>>>>999XXXXXXXXXXXXXXXXXXXXXXXXXXXXXX99o=++++++++      ",
"   .777.999999999999999999999999999999999999999o++++++++++>>    ",
"   .676.999999999999999999999999999999999999999999999+++o+99>>  ",
"  >>.6.9999999999992222222299999999999229999222222229999999999> ",
" >29.6.22222222229999222222229999999229922222999999999222222999>",
">2222.222222222229999222222229992222299999229999922222222222222>",
">2222222222222222222222222222222222222222222222222222222222222>>",
" >>2222222222222222222222222222222222222222222222222222222222>  ",
"  >>>>22222222222222222222222222222222222222222222222222222>>   ",
"     >>>>>222222222222222222222>>22222222222222222222>>>>>>     ",
"         >>>>>>>>>>>>>>>>>>>>>>>>>>>>>>>>>>>>>>>>>>>>           "
};
