/* XPM */
static char *e4e193404769409d8f936bc942830f3cjt6Ul65BGyeBdMvF[] = {
/* columns rows colors chars-per-pixel */
"64 64 34 1 ",
"  c None",
". c black",
"X c #B80906",
"o c #990030",
"O c #ED1C24",
"+ c #FF666E",
"@ c #399432",
"# c #22B14C",
"$ c #A68530",
"% c #8EC213",
"& c #FFC20E",
"* c #FFF200",
"= c #FCCC49",
"- c #6F3198",
"; c #F7C9B0",
": c #F7CAB0",
"> c #F2CFB2",
", c #F4CCB0",
"< c #EFDAB7",
"1 c #EEDBB7",
"2 c #EDDCB7",
"3 c #EBDFB9",
"4 c #ECDFB9",
"5 c #F1D3B3",
"6 c #F2D2B3",
"7 c #F0D4B4",
"8 c #F0D6B5",
"9 c #D3F9BC",
"0 c #EBE0B9",
"q c #EBE1B9",
"w c #FFF9BD",
"e c #B5A5D5",
"r c #99D9EA",
"t c white",
/* pixels */
"                                ............                    ",
"                              ...++++++++++.....      ....      ",
"                            ...+++OOOOOOOOO+++++...  ......     ",
"                          ..+++OOOOOOOOOOOOOOOOO++....&&www..   ",
"                          .++OOOOOOOOOOOOOOOOOOOOO..&&&&&&&&.   ",
"                         ..+OOOOOOOOOOOOOOOOOOO....&&&&&&&&&*.  ",
"    .....           ......+OOOOOOOOOOOOOOOOOOOOO.+++.....&&&*.  ",
"   ..++++..      ...++++++OOOOOOOOOOOOOOOOOOO..+++O+++++....*.  ",
" ...++OO+++......++++OOOOOOOOOOOOOOOOOOOOOOO.++OOOOOOOO++++...  ",
"..++OOOOOO++++++++OOOOOOOOOOOOOOOOOOOOOOOOO.+OOOOOOOOOOOOO+++.. ",
".+OOOOOOOOOOOOOOOOOOOOOOOOOOOOOOOOOOOOOOOO.+OOOOOOOOOOOOOOOO++. ",
"..OOOOOOOOOOOOOOOOOOOOOOOOOOOOOOOOOOOOOOOO.+OOOOOOOOOOOOOOOOO++.",
" ...OOOOOOOXXOOOOOOOOOOOOOOOOOOOOOOOOOOOO.+OOOOOOOOOOOOOOOOOOOO.",
"   ..OOOOOOOXXOOOOOOOOOOOOOOOOOOOOOOOOOOO.OOOOOOOOOOOOOOOOOOOOO.",
"    ..OOOOOOOXXXOOOOOOOOOOOOOOOOOOOOOOOOO.OOOOOOOOOOOOOOOOOOOOO.",
"    ....OOOOOOOXXOOOOOOOOOOOOOOOOOOOOOOOOOOXX.OOOOOOOOOOOOOOOOO.",
"     .X..OOOOOOOXXOOOXXOOOOOOOOOOOOOOOOOOXXX..OOOOOOOOOOOOOOOOO.",
"     .XXXX.OOOOOOXOOOOXXOOOOOOOOOOOOOOOOXXX..OOOOOOO........OOO.",
"     .OOXXX.OOOOOXOOOOOXXXOOOOOOOOOOOOXXX...OOOOOO....ooooX..OO.",
"     .OOOXX..OOOOXOOOOOOOXXXOOOOOOXXXXX...OOOOOO...qqq..ooXXXO..",
"     .OOOOXX.OOOOOXOOOOOOOOXXXXXXXXXX...OOOOOOO..qqqqqq..XXXOO. ",
"     .OOOOOXX.OOOOXOOOOOOOOOOXXXXX....OOOOOOOOO..qqqqqqq.oXXOO. ",
"     .OOOOOOX.OOOOXXOOOOOOOOOOOO..OOOOOOOOOOO...qqqqqqqq..XXO.. ",
"     ..OOOOOOO..OOOX.OOOOOOOOOOOOO...OOOOOOOO..q....qqqq..XX..  ",
"      .OOOOOOOO..OOXX.OOOOOOOOOOOOOO....XXO... ......qqqq.XO.   ",
"      ..XOOOOOOOOOOOXX.OOOOOOOOOOOOOOXXXX...qq..ttttt.qqq....   ",
"       .XXOOOOOOOOOOOXX...OOOOOOOOOXXXX..qqqq.tttrr..qqq..      ",
"        .XOOOOOOOOOOOOXXXX...OOXXXXX....qqqq..ttr..t.qq..       ",
"         .XXOOOOOOOOOOOOXXXXX........qqqqqqqqttr..t..qq.        ",
"          .XOOOOOOOOOOOOOOOXXXXXXXX..qqqq3,;qttr.....qq.        ",
"           .XXXOOOOOOOOOOXXXXXXXXXXXX...3266;qtr....qqq.        ",
"            .XXXXXOOOXXXXXXXXXXXXXXXX.qqq286;qq....qqqqq.       ",
"              .XXXXXXXXXXXXXXXXXXX...qqqq326qqqqqqqqqqqq.       ",
"               ...XXXXXXXXXX.......qqqqqqq44qqOqqqqqqqq.        ",
"                  ...........    .qqqqqqqqqqqqqOOOqqqq.         ",
"                                .qqqqqqqq.qqqqqqqqqq..          ",
"                        $      ..qqqqqqqq...qqqqqqq..           ",
"                        .&*    .qqqq..qqqq. ...qq...            ",
"                      ...$&*   .qqq...qqqq.    ...              ",
"                    ...#99$&....qq..--.qqq.                     ",
"                  ...#999%%$&..qq....--..q..                    ",
"                ..##%%%%%%%%$&.qq.qq..--....                    ",
"               ..#%%%########$.qq.qqq..---..                    ",
"              ..%%%########%%%.qq.qqqq.......                   ",
"       ........#%####%%##%%%##.qq.qqqqqqq..q..                  ",
"    ...tttttt.################.qq.qqqqqqq.qqq......             ",
"    .tteeert..################.qq.*qqqqq...qqqqqqq.             ",
"   .treertt..#################.qq.&*qqq.. ....qqqq.             ",
"  ..trttret..@@@@@@############...$&*...     ......             ",
"  .tttrret..@@....@@@@@@#########@@$&                           ",
" ..trrrtet....tttt....@@@@@####@@@..$*                          ",
" .trrrtert.tttrrert. ....@@@@@@@@..  =*                         ",
"..trrtret.trtrtrrrt.     .........   $&&*&                      ",
".trrtret..trtrrrrrt.                 $&&& &                     ",
".trtrret.trrretrtrt.                 $*&=  &&                   ",
".ttrrrrt.trtretrtrt.                  $  =                      ",
"..trrtt..tetretetrt.                   $  =                     ",
" .ttt.. .trtrrtert.                     $  =                    ",
" .....  .trtretert.                                             ",
"  ..    .trtrerrt..                                             ",
"        .trtrrttt.                                              ",
"        .trrrt...                                               ",
"        .ttttt.                                                 ",
"        ......                                                  "
};
