/* XPM */
static char *d2f3544e616c42af85f01e8e249094e21WmhLEtJxWXIimix[] = {
/* columns rows colors chars-per-pixel */
"64 64 237 2 ",
"   c #041515",
".  c #002E00",
"X  c #003A04",
"o  c #003C14",
"O  c #041B29",
"+  c #082B35",
"@  c #2B3333",
"#  c #393939",
"$  c #004809",
"%  c #005607",
"&  c #004214",
"*  c #004C16",
"=  c #01441C",
"-  c #005A17",
";  c #006217",
":  c #00721A",
">  c #094723",
",  c #014B22",
"<  c #194A2A",
"1  c #005424",
"2  c #005B28",
"3  c #125031",
"4  c #21492E",
"5  c #284B33",
"6  c #2E553A",
"7  c #016624",
"8  c #00642A",
"9  c #006A2C",
"0  c #00752A",
"q  c #026735",
"w  c #1A6B38",
"e  c #007638",
"r  c #24663A",
"t  c #053548",
"y  c #0F364C",
"u  c #2D3D47",
"i  c #003B6C",
"p  c #014759",
"a  c #304A4E",
"s  c #3C5744",
"d  c #2C4B52",
"f  c #36555B",
"g  c #00734A",
"h  c #00685A",
"j  c #3A6747",
"k  c #2A7242",
"l  c #00496C",
"z  c #095466",
"x  c #00477A",
"c  c #005778",
"v  c #2F5C61",
"b  c #04656E",
"n  c #007468",
"m  c #00767A",
"M  c #484849",
"N  c #445649",
"B  c #495958",
"V  c #545454",
"C  c #565858",
"Z  c #5B5C5C",
"A  c #4C6552",
"S  c #57665A",
"D  c #457051",
"F  c #56735D",
"G  c #4B5D65",
"H  c #645D62",
"J  c #5C6362",
"K  c #5E7663",
"L  c #646464",
"P  c #686768",
"I  c #6B6A6B",
"U  c #6A766C",
"Y  c #6F6F70",
"T  c #736D72",
"R  c #786975",
"E  c #737373",
"W  c #797579",
"Q  c #7B7B7B",
"!  c #008659",
"~  c #008B7B",
"^  c #5C8266",
"/  c #6B8771",
"(  c #778479",
")  c #004A8A",
"_  c #005B86",
"`  c #005E8A",
"'  c #004999",
"]  c #005A96",
"[  c #006385",
"{  c #006A87",
"}  c #00638B",
"|  c #006B8C",
" . c #00768B",
".. c #006294",
"X. c #006B93",
"o. c #00639B",
"O. c #006E9C",
"+. c #007393",
"@. c #007B95",
"#. c #00759B",
"$. c #007B9B",
"%. c #004AA3",
"&. c #0054A3",
"*. c #005DA4",
"=. c #0054AA",
"-. c #005DAB",
";. c #005EB1",
":. c #0064A5",
">. c #006BA3",
",. c #0063AC",
"<. c #006AAD",
"1. c #0075A3",
"2. c #007BA3",
"3. c #0075AA",
"4. c #007DAB",
"5. c #0065B2",
"6. c #006BB4",
"7. c #0067B8",
"8. c #006CBA",
"9. c #0072B4",
"0. c #007CB3",
"q. c #0074BB",
"w. c #007BBC",
"e. c #0076C2",
"r. c #007CC3",
"t. c #007DC9",
"y. c #837B82",
"u. c #00839C",
"i. c #00889A",
"p. c #009293",
"a. c #00B396",
"s. c #0083A3",
"d. c #008BA4",
"f. c #0083AD",
"g. c #008CAB",
"h. c #0097A6",
"j. c #0093AB",
"k. c #0084B3",
"l. c #008BB4",
"z. c #0083BC",
"x. c #008CBB",
"c. c #0092B5",
"v. c #009AB4",
"b. c #0093BC",
"n. c #009BBD",
"m. c #00A8AC",
"M. c #00A4BC",
"N. c #00A9BA",
"B. c #00B7BA",
"V. c #7F8781",
"C. c #00C5BB",
"Z. c #63C6BC",
"A. c #0083C5",
"S. c #008AC5",
"D. c #0085CA",
"F. c #008CCB",
"G. c #0094C4",
"H. c #009BC2",
"J. c #0092CC",
"K. c #009BCC",
"L. c #0082D1",
"P. c #008DD2",
"I. c #0094D2",
"U. c #009CD4",
"Y. c #0097DA",
"T. c #009CDB",
"R. c #00A4C3",
"E. c #00ACC4",
"W. c #00A2CB",
"Q. c #00ABCC",
"!. c #00B3C4",
"~. c #00BCC5",
"^. c #00B4CB",
"/. c #00BCCC",
"(. c #00A3D4",
"). c #00ABD5",
"_. c #00A2DB",
"`. c #00ACDB",
"'. c #00B3D4",
"]. c #00BAD3",
"[. c #00B3DC",
"{. c #00BBDC",
"}. c #00A7E1",
"|. c #00B5E2",
" X c #00BCE3",
".X c #00BDE9",
"XX c #00C6CA",
"oX c #00C3CC",
"OX c #00C2D3",
"+X c #00CBD6",
"@X c #00C4DD",
"#X c #0FD3D3",
"$X c #01D2DA",
"%X c #1DDCDA",
"&X c #00C3E4",
"*X c #00CBE6",
"=X c #00C5EA",
"-X c #00CCEA",
";X c #00D5E6",
":X c #00D3EC",
">X c #00DBEC",
",X c #00CEF1",
"<X c #00DAF1",
"1X c #00E2EC",
"2X c #00E4F3",
"3X c #00EBF6",
"4X c #00EDFB",
"5X c #00F2FD",
"6X c #00FDFE",
"7X c #2BFFFF",
"8X c #5DCECE",
"9X c #6BCFCF",
"0X c #4FF6F5",
"qX c #79F2F1",
"wX c #838383",
"eX c #858C87",
"rX c #8A8589",
"tX c #8C8C8C",
"yX c #908C8F",
"uX c #89988C",
"iX c #978B95",
"pX c #949393",
"aX c #999798",
"sX c #9C9B9C",
"dX c #A0969F",
"fX c #9DA29E",
"gX c #A59CA3",
"hX c #A4A3A4",
"jX c #A9A5A8",
"kX c #ABAAAB",
"lX c #AFB1AF",
"zX c #B4AAB2",
"xX c #B9B4B9",
"cX c #C0B1BD",
"vX c #C5BAC4",
"bX c #96E3E3",
"nX c #CBC2CA",
/* pixels */
":.>.w.,.,.w.S.D.r.U.2XS.;.r.w.q.6.A.D.D.S.r.,.,.,.6.S.:XQ.*.*.z.0.6.w.Q.>XA.A.S.`.-X|.J.r.q.&.' U.-X<.<.9.:.<.9.9.6.5.I.,XU.r.r.",
"6.6.J.r.r.A.A.D.q.[.6X<XF.F.K.J.w.z.D.D.D.q.-.,.-.<.&XW.' :.,.-.q.-.,.4X-Xr.F.r.q.I.`.=X.X:X*X&X<X9.&.6.,.<.w.z.S.G.K.U.U. XA.r.",
"q.A.U.U.F.A.r.q._. XG.[.,X(.q.,.r.A.r.A.F.q.-.,.&.K.U.-.S.x.9.%.-.9.{.4XS.A.D.8.q.r.q.F.).-X6X0X:X9.w.9.8.r.6.-.w.I.J.F.q._. Xw.",
"A.S.F.r.t.F.U.-X*Xz.%.,.(._.U.w.6.D.A.r.S.q.-.] W.6X&X*X*X(.W.[.I.*X0X@X6.D.e.8.J.F.A.A.r.6.x.6X1XU.I.G.r.6.6.q.A.F.D.A.A.w.{.{.",
":X{.-X-X&X,X:X.XG.6.=.q.q.6.z.K. X).`.`.K.|.(.W.6X4X).S.5.=.7.J.J.W.3X-Xw.A.r.A.J.A.F.U.A.r.q.:X4XA.F.S.r.D.D.S.F.D.F.D.A.A.9.:X",
":XQ.[.-X@X).S.7.A.S.S.w.e.r.] :.&X1X[..X=X`.U.K.&X[.%.=.-.5.5.-.=.=.U.`.I.K.I.S.6.e.D.U.`.P.8.'.5XS.e.D.D.D.F.A.A.A.F.A.A.D.q.[.",
"[.6.r.A.r.e.8.,.,.0.J.A.r.F.w.w.w.).J.w.I.r.7.,.K.[.6.6.5.5.5.5.,.6.).J.D.J.J.S.z.D.D.r.J._.D.G.4X{.r.A.D.D.F.D.A.A.D.F.F.A.A.F.",
"{.F.r.D.P.L.7.-.:.9.w.r.S.F.F.F.A.F. XF.F.A.=.&.).(.6.9.6.5.5.5.,.S. XF.r.F.A.S.S.D.D.A.r.F.K.r.,X:XA.D.F.F.D.A.A.D.A.F.F.F.r.F.",
"&X).w.A.F.J.r.6.0.6.-.5.w.I.F.D.P.r.[.[.S.F.8.w.(.<.,.q.z.5.-.-.6.Q.<XJ.t.e.r.r.w.D.F.D.D.S.S.t.`.>XJ.D.F.D.D.D.D.A.D.S.J.A.e.r.",
"[.=Xr.S.S.F.I.P.q.-.-.;.r.U.F.D.J.F.J. XJ.F.A._.`.-.;.,.A.6.8.r.r.K.5XI.6.:.,.:.:.r.F.D.D.r.A.Y.P.&XJ.D.D.D.D.D.F.F.D.F.A.<.9.r.",
"U.4XS.w.A.A._.T.e.q.w.q.A.J.F.F.I.F.F..X`.A.F.-XU.r.q.9.S.A.S.A.r.W.2XJ.e.9.q.q.q.F.F.D.A.D.Y.T.q.'._.r.I.D.D.A.A.A.F.D.6.*.<.w.",
"F.,XG.w.w.r.I.U.F.S.S.S.I.J.F.I.F.P.F.I.U.F.=X=XS.J.F.J.I.F.S.S.q. X*Xw.D.F.D.F.D.F.F.A.r.Y.}.D.' @X4XS.S.I.A.D.A.D.F.D.5.,.<.,.",
"(.).[.q.A.I.I.J.S.S.S.K.I.P.F.F.F.I.r.).-X{.-XF.k.h e u.F.J.J.S.A.&X'.q.t.D.A.A.A.F.F.A.J.F.9.0.5.F.U. X(.A.r.A.A.D.S.D.9.,.<.,.",
"U.*.&X).=.t.`.I.r.D.U._.J.J.I.J.J.F.z.1X$Xa.~ b h 1 2 q 3 t p i } 3XK.6.,.6.r.A.A.F.F.S.F.r.,.6.6.U.9.W.6XG.8.r.D.D.D.D.q.&.&.U.",
"w.%.S.4Xq.%.J.T.t.T.}.F.F.F.F.J.S.4.m.m.g e e q 8 2 1 2 & < ( y.+ m A.*.<.-.q.S.F.J.k. .h n b ` 3.'.G.3.&X2X&XI.e.r.A.w.8.6.[.&X",
"-.-.=.(.=X6.q.I.I.|.|.D.r.D.F.x.p.n ! g 8 7 8 8 * $ X o X * F rXZ O i :.9.6.A.u.u.m h q 8 2 1 q h h.W.q.9.(.:X:X&X[.[.W.[.2X).o.",
"r.=.=.=.&X2Xr.r.S.`._.D.D.J.k.b e 0 9 8 8 7 - * - 2 > < = X < Y y.Z O ) o.] X.g e 9 8 9 8 , , > , q c.-.8.r.w.G.(.(.`.`.:X5X'.K.",
".X*X7.' '.>X-X[.S._.|.I.G.U.n 8 0 9 9 8 2 2 $ 2 / sXeXaX( D S wXE y.M @ t y s e e 9 8 8 2 > = , , 1 m ,.8.J.S.r.e.r.e.r.F.(.[.|.",
"9.). X*XU.=.K.:X<X;X-X,X[.!.! 7 9 9 q 9 - 1 D aXxXvXcXnXvXhXrXW P E R @ H aX^ : 9 8 8 8 1 , , = - > @ y o.K.J.F.t.r.t.P._.U.J.D.",
"A.,.z.6X[.6.A.z.`. X`.|.=Xd.e 8 8 ; 9 9 $ D zXxXsXsXaXtXtXtXy.U I T Z Z yXeX9 ; 9 8 8 2 1 = & = > & < N y 3.J.I.D.t.D.U.U.D.P.P.",
"D.F.0.K.*XG.F.F.F.D.P.Y.T.X.v uXhX/ % X = aXvXhXrXpXwXL L Z V H H M 4 L aX/ ; 9 0 8 9 1 $ * N U 6 & & 5 a O F.F.F.D.P.T.D.r.D.D.",
"D.F.F.w.&X'.A.F.Y.Y.T.T.}.[ G zXjXD 2 j U jXjXwXH V M M M M M Z N $ $ U ( w 0 9 ; ; - * * N Q F 3 = & , N # ` S.F.K.`.J.A.F.D.r.",
"D.A.J.A.[.{.r.P._.U._.T._.p Q zXV.w 6 aXgXE Z V M # # V Z L P A ; % A rXD % 7 7 r j k r B T J * = = & = B I + 0.F.F.K.A.A.D.D.A.",
"A.A.F.F.`.|.r.I._.F.I.U.[ a tXlXaXF K dXpXC M M Z Z P I I y.E w % A iXjXD % % j rXrXQ L T W < X & > & = N y.@ O.P.A.D.D.D.D.D.F.",
"D.D.F.Y. X`.r.I.I.I.`.`.+ M pXlXxXxXhXeXwXE E E E Q U I I W S * N iXdXxXV.w r eXgXdXy.P P C o = = > > o 4 P M 1.F.S.F.S.D.D.P.F.",
"t.F.I.F..XK.F.U.I.I.(.(.@.+ wXkXfXhXhXwXwXrXwXI P P I I I E A @ R iXpXfXkXkXkXfXwXwXI I I N X < 4 > = = o < # X.J.S.D.S.S.w.w.w.",
"<.r.q.{.&Xr.I.I.I.S.x.p.n   @ y.yXwXwXwXwXE L P I I I P R I 6 N iXjXjXhXhXkXkXyXQ rXwXI T S o 4 P 6 o & = = M l z.A.D.S.w.5.;.5.",
"q.<.] :X[.q.D.A.F.l.n 8 2 > M W eXwXwXeXQ I L I I I I I E j > P lXkXhXhXhXkXkXpXQ wXQ I P I C S W N = o = 5 P l k.F.F.F.w.-.<.<.",
"8.%.W.5XS.6.5.7. .g q 7 7 ^ tXy.y.wXy.tXQ I L I I I I R K < N iXlXhXhXhXfXhXkXyXwXQ L L I I T T T 6 & X o 6 I l z.J.F.F.r.5.,.:.",
"(. X6X6Xz.-.,.] g e q 9 - ( lXgXwXW H H E I I I P I I R D 6 I zXkXhXfXfXjXkXaXeXtXQ Z P E I I y.S 4 4 4 o 5 H z A.A.z.S.F.e.<.9.",
"=X{.;X>Xz.3.) + - 0 w 9 X F xXxXtXQ V # Z E I I I I I W A 7 U zXkXfXhXhXkXfXeXy.tXQ Z L E I I W N > C N . 5 P b /.=X*X[.`. X|.=X",
"q.&.x.[.9._ t B e 0 k j X 6 kXvXkXyXE 6 # I E I I I P R S ; w sXlXhXhXhXaXwXQ wXwXy.C C I I I I 4 5 J 6 . 6 R @ +.-X:X|.T.J.S.A.",
"7.6.w.U.,.  W hX^ ^ ( ( $ 2 K hXxXgXE Z @ C Y Y I I I T Y 8 ; / zXjXjXjXaXQ wXwXwXtXI V S T Y P 4 C P 6 4 Z Q M l z.A.F.z.,.&.-.",
"5.9.9.r.,.O W yXrXsXvXhX$ < U F / dXyXQ M # J W P I I P R j 7 F jXlXlXkXpXwXwXwXwXtXV.Z Z E P P I T T T I L P P @ S.J.F.F.q.,.,.",
"-.w.w.K.9.x G pXtXeXjXjXF j fXfXF U iXwXW L P P P P I L C N k U y.aXgXaXrXV.rXeXrXtXwXI L I I I I I I P L L E T + J.I.P.J.A.9.5.",
"z.z.9.&X(.%.t y.aXQ wXyXtXF pXsX^ ( aXV.Q Q P J E y.Q wXZ V U eXW W Q E E Q W E Q Q E I P P I I I I Z Z L E E # l G.F.P.J.G.A.6.",
"S.q.r.-X5Xw.) f aXhXpXtXrXB L Q ( yXyXE E Q Q Q U L P E C M H E E W Y E W Q E I E E I I E Y E E Y I I E Q Y a m 3.F.F.I.J.F.D.D.",
"r.q.J.1X0X6X].p B yXtXV.W S S I R I I L Y L J G d t p l p p z p G f f J U I E E I T E W E E E E I P P L B v p.3Xz.D.J.G.I.D.D.P.",
"A.J.2X0X7X6X5Xv.p p v a Z J Z V V Z P V a t c c ` F.G.F.w.@X=Xx.} |  .b p d a f d f d B B f a d f d p z l ` [.6X Xw.J.F.F.F.S.w.",
"*X<X5X;X@X).G.G.2.f.M. .v v v a @ M J u l O.k.z.z.F.F.P.(.>X[.I.S.z.K.H.l.2. .| ` [ [ i.u.[ {  .|  .c.x.z.4.w.).5X'.r.P.F.w.H.-X",
"W.x.W.A.5.t.D.>.1.k.0.1.1.@.d.u.l d z l ] f.k.f.1.3.4.0./.#XM.H.M.c.H.b.x.b.n.b.x.z.k.M.n.n.R.b.b.M.n.z.f.f.z.w.).3XU.r.e.[.3X;X",
"A.5.q.w.5.S.z.1.x.x.l.x.z.O.` c.b.:.3.>.k.n.l.k.k.g.f.R.^.v.^.!.oX$XE.x.G.b.b.b.b.b.k.E.R.l.R.Q.n.x.b.b.x.l.1.3.w.).5X*X:X4X'.0.",
"F.A.A.z.<.w.1.k.x.k.l.x.l.f.x.n.^.k.z.l.b.l.f.f.k.k.l.OXN.2.l.G.b.~.oXb.G.b.G.b.G.x.c.^.b.l.H.H.b.x.b.l.k.f.k.>.4.z.{.qX6XS.q.D.",
"J.A.S.S.,.] 2.b.l.k.S.b.1.g.K.b.M.!.E.b.k.4.f.k.f.4.l./.l.$.g.H.x.b.@XE.b.H.H.H.G.b.M.XXM.x.b.H.H.x.x.b.k.f.x.x.3.w.G.6X].r.P.D.",
"F.8.9.A.5.) 1.l.l.x.G.b.$.$.4.1.N.OXb.k.2.2.4.l.k.4.c.E.k.1.d.v.x.G.{.@XH.H.H.G.G.b.v.XXn.x.b.n.R.H.x.G.x.f.l.n.l.(. X2XJ.D.D.A.",
"A.D.9.q.8.x 3.G.k.s.k.k.$.+.2.n.@XW.4.f.2.4.k.k.f.f.!.Q.3.$.h.M.G.H.W.{.W.b.n.G.G.G.~.9Xb.x.n.n.g.v.b.l.s.2.x.k.x.(.`.&Xz.t.A.S.",
"A.D.e.q.D.] o.4.s.@.2.s.| #.z.^.].x.l.2.s.f.k.f.0.4.!.Q.3.$.j.Q.H.n.G.{.{.A.x.R.^.OX8X9XXXb.b.b.f.l.b.s.@.2.l.>.z.A.G.[.z.D.D.F.",
"F.A.F.t.J.U.9.1.$.u.2.$.X.4.x.OXE.0.f.1.f.k.g.k.l.f.E.R.1.$.M.'.Q.R.x.].$X^.OX%X+XoXN.E.oXoX!.H.g.s.b.v.+.+.l.k.7.6.&X.X6.D.D.D.",
"U.U.I.D.F.T.P.0.2.s.u.$.#.3.R.OXc.k.f.f.l.l.4.l.l.f.!.R.1.g.c.J.R.E.H.@X9X0X;XQ.R.R.x.k.b.!.oX+XoXi.$.g.s.g.f.>.J.&X3X<X6.e.D.D.",
"P.J.Y.F.t.P.}.P.k.f.#.| X.f.%XoXO.4.k.b.l.f.2.f.z.3.E.R.4.g.g.z.G.H.W.;XbX].H.H.E.n.l.l.n.n.x.n.!.~.h.+.s.s.1.H.5X{.,.(.|.8.e.F.",
"e.A.F.J.A.t.J.F.(.Q.f.i.m.$.f.E.n.x.n.^.^.^.~.E.G.k.!.N.l.v.$.f.G.G.K.8X$XK.W.Q.H.b.H.b.b.n.b.4.4.c.C.N.#.+.!.OXW.6.&.-.(.=XI.e.",
"F.e.w.r.F.(.,X*X`. X4X1XM.x x 2.Q.H.l.b.H.E.!.oX+XXX9X~.c.R.s.2.G.G.'.%XE.W.W.b.l.H.G.G.b.j.d.$.f.$.i.B.B.B.N.] <.r.5.-.*.{.5X[.",
"3X*X*X{.:X2X3X&XA.5.[.>X] ) >.z.4.k.4.3.l.k.2.k.v.n.~.%XE.n.n.4.0.c.+X$Xl.b.b.b.l.l.l.G.l.j.$.#.$.2.2.u.Z.C.` ' 6.w.,.,.w.w.:X6X",
"7X3X-X[.(._._.F.A.,.6.q.x ] k.4.3.k.x.k.G.l.f.z.0.4.l.+X~.f.f.g.f.k.].[.l.u.s.l.b.x.x.k.c.c.u.@.@.$.#.X.B.N.] *.<.q.9.z.D.t.G.6X",
"(.A.w.e.e.F._.F.t.r.w.6.o.2.1.4.1.X.#.G.W.c.$.1.f.l.n.M./.b.4.j.i.2.^.'.s.@.@.s.k.l.b.x.l.f.d.$.+.$.$.X.E.^.o.9.w.S.F.A.L.t.K.;X",
"w.A.F.A.A.A._.F.r.D.Y.r.A...X.4.$.[ _ b.).H.4.3.4.f.f.1./.M.1.c.u. .N./.$.+.+.+.#.u.j.g.1.k.f.u.$.$.#.+.B.E.] r.F.I.L.D.F.A.=XK.",
"A.F.F.S.r.D.(.J.D.w.{.(.6.) o.0.4.X.+.s.v.'.Q.b.l.4.1.1.b.B.1.k.k. .m.E.1.#.+.+.+.[ $.d.$.s.l.f.s.$.#.X.N.v.:.A.A.I.I.Y.A.J.&XS.",
"A.F.I.J.A.t.I.U.S.w.[.{.D.*.o.3.k.f.$. .@.G.).H.l.x.k.4.g.oXg.1.k.1.j.N.k.4.+.@.+.[ $.d.u.+.s.f.$.| [ ` 2.m.z.A.A.D.T.T.G.*XJ.r.",
"S.A.A.F.F.D.r.I.U.F.-X=X}.z.$.$.u.$.u.u. .4.G.H.b.b.b.l.l.OXn.4.k.0.g.E.x.k.$.$.X.| u.s.s.$.+.| } } [ ) o.3X{.q.r.A.t._.4X].9.t.",
"J.w.-.6.D.F.S.S.F.).3X(.P.U.s.u.u.u.u.$.@.@.f.b.H.K.K.K.G.oXn.4.4.f.l.B.g.k.f.u.@.$.$.#.$.$.} _ _ ` } ) (.6X4X[.G.I.K.5X<XF.D.D.",
"z.r.q.*.q.F.S.F.r.J.2XK.t.Y.f.@.u.u.u.+.#.@.@.$.k.x.l.x.j.C.g.0.4.4.s.oXv.] 1.d.u.$.$.#.s.X.c ` } ` ) `.4Xz.w.[.).{.6X;XS.T.I.J.",
":.<.z.<.6.A.D.A.S.K.:XF.D.F.z.f.u.$.$.$.@.$.+.| +.#.| .. .B.$.3.z.3.#.1X;X4.3.f.s.$.$.$.s.` ` ` ` _ 0.6X'.%.=.9.6.5.:X{.q.I.F.S.",
",.:.0.w.,.r.S.D.A.K.|.t.r.q.e.r.l.f.2.$.$.$.} [ [ [ c x h.C.~.R.c.$./.6X7X2XU.0.z.4.f.s.u.} ` ..] ] <X:X5.5.5.6.6.-.w.-X(.T.J.9.",
",.,.k.3.5.e.D.D.r.(.|.D.6.-.;.6.A.S.z.z.s.#.} } [ [ [ $.B.m.E.E.g.E.:X1X5X>X X|.J.r.J.k.4.1.o.:.=.(.3X9.-.6.6.6.6.;.-.(.,XI.D.w."
};
