/* XPM */
static char *cdbf585a9f174e78c478e424683d0329G9XyXH3NhJPgZwRf[] = {
/* columns rows colors chars-per-pixel */
"64 64 237 2 ",
"   c #00439C",
".  c #014C9E",
"X  c #035396",
"o  c #00549C",
"O  c #005B9D",
"+  c #01629D",
"@  c #024DA2",
"#  c #0154A3",
"$  c #025DA4",
"%  c #045DAA",
"&  c #0959A8",
"*  c #0363A5",
"=  c #0A63A5",
"-  c #036BA5",
";  c #0364AB",
":  c #0A64AB",
">  c #036BAD",
",  c #0A6CAC",
"<  c #0372AD",
"1  c #0A72AC",
"2  c #0379AE",
"3  c #0465B1",
"4  c #0A66B2",
"5  c #036CB3",
"6  c #0A6CB3",
"7  c #026EB9",
"8  c #106BB4",
"9  c #0373B4",
"0  c #0A74B5",
"q  c #027AB5",
"w  c #0B7CB4",
"e  c #0274BA",
"r  c #0A74BA",
"t  c #027CBC",
"y  c #0A7BBC",
"u  c #1676B9",
"i  c #117BBC",
"p  c #0075C1",
"a  c #037CC2",
"s  c #0A7DC2",
"d  c #077BC8",
"f  c #127DC2",
"g  c #0382B5",
"h  c #0B86B6",
"j  c #0282BD",
"k  c #0A82BD",
"l  c #058BBE",
"z  c #0C8CBE",
"x  c #1283BD",
"c  c #108CBF",
"v  c #0484C3",
"b  c #0A84C4",
"n  c #048BC5",
"m  c #0A8AC5",
"M  c #0485C9",
"N  c #0B85C9",
"B  c #048CCA",
"V  c #0A8CCA",
"C  c #1283C2",
"Z  c #178CC5",
"A  c #108CCA",
"S  c #0592C5",
"D  c #0A92C6",
"F  c #0698C4",
"G  c #0B9AC6",
"H  c #0492CB",
"J  c #0B93CC",
"K  c #059ACD",
"L  c #0B9BCD",
"P  c #1293C5",
"I  c #1B95C7",
"U  c #1293CC",
"Y  c #139CCB",
"T  c #1A9DCD",
"R  c #028DD2",
"E  c #008AD6",
"W  c #0A8DD1",
"Q  c #0394D2",
"!  c #0B94D2",
"~  c #039BD4",
"^  c #0B9BD3",
"/  c #0094DA",
"(  c #0D96D8",
")  c #049CD9",
"_  c #0B9DDA",
"`  c #1295D2",
"'  c #129CD3",
"]  c #1B9DD1",
"[  c #129DDA",
"{  c #219CCC",
"}  c #219FD0",
"|  c #06A5CC",
" . c #0CA2CC",
".. c #14A3CD",
"X. c #1BA3CD",
"o. c #18ABCC",
"O. c #04A2D3",
"+. c #0BA2D5",
"@. c #0CABD5",
"#. c #04A3DB",
"$. c #0BA3DB",
"%. c #04AADC",
"&. c #0CABDC",
"*. c #14A4D4",
"=. c #1CA4D3",
"-. c #12AAD6",
";. c #1BABD4",
":. c #12A4DB",
">. c #1BA6D9",
",. c #12ABDC",
"<. c #1CACDA",
"1. c #05B5DB",
"2. c #0CB3DE",
"3. c #13B2DC",
"4. c #19B7DA",
"5. c #1DB4DA",
"6. c #21A1C5",
"7. c #23A3CC",
"8. c #31AACE",
"9. c #23A4D3",
"0. c #26A5D6",
"q. c #22ABD4",
"w. c #2AACD6",
"e. c #24ADD9",
"r. c #2CADDA",
"t. c #22B3D5",
"y. c #2BB5D4",
"u. c #24B3DB",
"i. c #2CB5DB",
"p. c #24BBDD",
"a. c #2BBADB",
"s. c #35B7D6",
"d. c #32B5DB",
"f. c #34BBDC",
"g. c #3ABADC",
"h. c #049CE1",
"j. c #04A6E2",
"k. c #0CA5E1",
"l. c #0CABE2",
"z. c #15A9E1",
"x. c #13ADE2",
"c. c #00B5E3",
"v. c #0EB3E2",
"b. c #0DBBE3",
"n. c #12B4E3",
"m. c #18B7E6",
"M. c #15BAE4",
"N. c #1BBBE3",
"B. c #23B4E2",
"V. c #24BBE2",
"C. c #2CBCE2",
"Z. c #2BBAE5",
"A. c #31BDE4",
"S. c #39BEE3",
"D. c #4EBEDB",
"F. c #42BDE1",
"G. c #27C1DE",
"H. c #39C2DE",
"J. c #1BC4E9",
"K. c #24C4E3",
"L. c #2BC4E3",
"P. c #2CCAE4",
"I. c #2AC7EC",
"U. c #24CCEB",
"Y. c #33C3E4",
"T. c #3AC4E3",
"R. c #34CBE5",
"E. c #3ACAE6",
"W. c #34C4E9",
"Q. c #3CC5E8",
"!. c #34CCEB",
"~. c #3CCCEB",
"^. c #2BD3E9",
"/. c #3FD3E6",
"(. c #3CD3EC",
"). c #36D8EB",
"_. c #3DDAEC",
"`. c #2ED1F4",
"'. c #39D9F2",
"]. c #3EE4F5",
"[. c #45C3DD",
"{. c #44C5E4",
"}. c #44CCE5",
"|. c #4ACBE7",
" X c #44CDE9",
".X c #53CCE6",
"XX c #43D3E6",
"oX c #49D7E7",
"OX c #43D3EC",
"+X c #4BD5EC",
"@X c #4DDAEC",
"#X c #52D4E8",
"$X c #53DAEC",
"%X c #59DBEC",
"&X c #41CFF0",
"*X c #46D6F1",
"=X c #44DBF2",
"-X c #4BDEF2",
";X c #57DDF4",
":X c #62DCEA",
">X c #63DEF1",
",X c #4AE1ED",
"<X c #57E4ED",
"1X c #5BE2EF",
"2X c #4CE3F4",
"3X c #4AE6F6",
"4X c #53E4F2",
"5X c #5BE5F4",
"6X c #56E9F4",
"7X c #5CEAF5",
"8X c #54E4FA",
"9X c #55ECFB",
"0X c #5CEDFA",
"qX c #5BF5FE",
"wX c #62E3EE",
"eX c #71E4EE",
"rX c #66ECF4",
"tX c #6BEBF4",
"yX c #68E8F7",
"uX c #66EEFB",
"iX c #76EBF8",
"pX c #65F6F8",
"aX c #63F2FD",
"sX c #6DF2FB",
"dX c #6DFBFE",
"fX c #76F4F9",
"gX c #74FDFE",
"hX c #7BFCFE",
"jX c #88F7FA",
"kX c #84FFFE",
"lX c #8CFFFF",
"zX c #93FFFF",
"xX c #9DFFFF",
"cX c #A3FFFF",
"vX c #ABFFFF",
"bX c #B5FFFF",
"nX c #C6FFFF",
/* pixels */
"* - w : ; q b M a { ,Xv % t y r 6 k v M m y ; = = > l ).7.+ O g 2 6 t o.$XM j m <.K.u.J e 9 O . Y R., ; 9 * - , 0 , : ^ U.L a y ",
", > J t y b k m 7 i.gXOXV S D J t g b d b r = = $ > A.{ X * = & 0 ; * 7XR.t b y e U u.Q.F.OX[.[.=X> O , * : w k l S K Q ^ Z.b t ",
"9 v ^ ~ B s t e =.p.P u.!.*.0 ; y b d b m r % * O T T * x c 0 . % 5 s.uXn a C 6 r s e m e.E.dXxX/.5 r 9 6 i 6 ; r J H n 9 9.g.t ",
"j v n e a M ] E.R.k @ ; K >.] r > b v t l 7 $ O 7.aXK.P.R.X.L e.I P.xXg.> B r 7 V m l j t 5 z fX).~ Y m t > 6 9 b A v b s t s.a.",
"@Xa.E. XS.(.OXS.F > & r e > q T g.X.<.>.L u.{ X.dXuX9.C 6 # 6 U m X.tXE.t v t b J t m ' l s 7 #X3Xn B m t b b b m m m b s j 9 |.",
"XXX.t.!.G.X.v 5 a k k y y y O * {.<X<.L.!.>.T L L.e.. # % : % $ $ # ~ ,.J F ' b 5 r d ' +.V 7 t.sXB e s b N N b s b m b v v t i.",
"d.> a a a p 6 : - q P j t m w q q ;.J t H s 6 $ Y u.> > 4 3 ; 4 : > *.U v K m l t m b t J [ v F 9X5.t v m m m b b b b b n b b n ",
"u.U a b W N 3 & * , y t b V V V t n Z.m n s % # 9.T < 0 > > 4 ; ; k 5.V s v v m b m N b t m J a OX/.v M m M b b b b b m V m y M ",
"G.;.t t M J y 5 w , ; : r U B M V a e.<.v A 5 r 9.> ; 0 y ; % ; > X.'.n s r s e y m b d d l k a e.@XH v m n m b b b b b J v r t ",
"d.T.t b k m Q V r % & ; t ^ V v H B H a.G B v 9.w.$ % % x 6 6 i v G sXT 5 + * $ * j m M b b b _ V L.J N N a M b m b b V k - 1 t ",
"T uXm q k m $.[ r 0 w e v H n V J V v A.=.a B R.Y t 9 9 m k b b a Y 5XA e 9 9 r r M V b b a ( _ 7 y.0.t U N a b b b V N > $ , q ",
"m &XD q y s B ^ m m b v F H n J B V B Q O.B W.W.n J m J J J n v e H.E.r N b m m b V B l t ` k.l . D.iXj v ! b j b k m b 6 = : ; ",
"] =.u.e b U Q H m b v F ! W V B V J t ;.^.2.R.n v n J ^ H H H B j T.t.9 f b b b j m N M J m 9 w ; V 7.g.@.a s b m b m b 6 = : * ",
"] $ A.;.@ s $.K t v ~ O.B B H V H B g 5XgXhX5.a W B ^ J J V V v J 5XY 7 ; , s k k M n m m y * , 6 J < 7.pXD 5 s s b a m r O O ' ",
"0 @ c 9Xu @ H ^ d :.x.B S B V H H t 5.4XX.#X4X-.R [ ! B J m M t ;.aXC O ; % r m n V V v a s 6 = < u.c < G.4XF.` p t t t 7 > w.Q.",
"% & # 7.W.> r U H n.,.v s s V V j U 9X,.j H *XaX,.~ R n M s s v (.E.$ , > > k m J J b b V b 6 $ 9 V.e.r 9 9..X(.T.i.4.L s.%Xq.+ ",
"u % # o L.-Xe t n @.+.v M V H v ' 8XV./ _ $.) (.dX4.H H J M m v L.4.> , , r k m m M m V A V 1 O - ;.I.% 6 t e n 7.=.e.e.~.gXs.{ ",
"S.P.6   e.@XR.f.b #.&.K n O.~ 4.'.4.H _ $._ #.j.G.6XaX@.n J ^ t V.K.; * * % 9 b b J V t b M b - O J U.r r H n s r t t p M O.e.i.",
"0 9.g.}.T # Y XX;X).U.U.5.C.6XxXG./ ) #.$._ ~ M.J.4.6XsXD 9 B S =X}.* = , * r m V ` N v N 9 1 k n [ N.y y J J V d s s V $.~ B v ",
"b * z dXi.5 v j ;.a.*.5.I.<.Y.jXrX#.l.#.#.$.$.v.m.%.K !.sXs.G.0XsX@X2 o : $ 9 A ` V m b B 0 O e V >.;.* > n V H m s a ^ ! v B W ",
"b D e T R.S B m B a E / h.#.Q O.0XP.#.l.#.$.$.l.#.) ~ R +XvX<Xe.m | V.8 o % : V ^ M b n J t ; : 7 >.a.; 7 b V J V m m ' b s d b ",
"v B m q Y.;.t V ~ ! [ _ j.%.l.E ,._.%.l.&._ Q &.,.^ J n S 8X..e g 9 C A.T + ; v +.^ B V H n j i 9  .5.> 5 m V V A J ,.J v m b b ",
"b v V j q.V.a V #.~ +.) k.l.&.k./ _.M.Q l.x._ 2.+.J m l l / B.m S s 3 m V.i.{ H B B J J J B n s t f.;.b e m B V m N H v b b b b ",
"b t V V -.5.v J ^ B ! $.l.v.2.2.%.;X,X%.j.l.n.$.B V H S V v u.=.n b V e # 9.).5.*.L B t t v *.` S.hXP v m b S D B b b m b s M m ",
"N M M Q Z.;.a J Q ~ +.x.1.v.n.b.%.;XhXb.c.k.~ Q B V V J b 5 <.=.n v b m r 5 n L 9.OXOXE.F.4.M.z.4.,XD a b b B J B b b n b m m B ",
"s V J B C.J n ` ! L +.$.$.$.~ %.#.%XvXK.) $.B V H H J l : $ ;.;.n v l B J V m m t Y.+Xq.i.L M a t H.e.e e b D V D m l m b e r t ",
": h e g.{.t H ! J n S J ^ _ ,.b.#.tXbX5X~ M V V S H l < & $ X.m t j v v B D V m v *.W.j t B ( V t H.8Xn b j n H D m b m e : % : ",
"8 , X /.d.9 b v m S n B B $.3.H >.0Xa.t.aXu.v a B J s ; o m OXa.<.K.q.' v B n B H H ~.-.B x.+.d a H gXE.t a V B V n M m q $ , > ",
"r o 6.uXC > 3 6 e l H B V ~ H t ;.).H v Y.+X(.u.Y v e % b u.} U i ;.!.!.a.v n L H ,.2X,.k.n.&.,.:.~ W.hXy.q a M n B B m C : : * ",
"' f.kXgXm $ % : : y F n ! _ +.l a.=Xv B t n <.a.y.A.g.i.).m ; r 9 l K B '.2XV.v e ;.(.H ( %.2.`.@.~ R t.zX:Xo.G H l j n m y ; 9 ",
"K.a.XX_.g < * = ; 6 v L >.` ^ v {. Xt v B n v j n ] 9.A L.>.: y b b J W ! L.C.*.9.OX<.R Q H B.J.^ ! Q v p.cXcXsXOXQ.E.3.,.A.u.T.",
"r # h a.9 q 1 * ; % b ,.H M M v *Xq.5 3 t v l v v e 7 9 *.C.5 % 4 7 B 3.H j j -.dX#Xp R ) +.3.%.n.$.G / d t.cXoX=.!.~.B.' Z Z k ",
"4 , w { , 0 < 1 = & A K n A B K p.k C u.i.r.i.s.H.OXY.] w.y.q s 6 y l L ! v m B I.K.! z.J.b.v.O.%.n.$.K / z.sXT a j v n j % O $ ",
"; 9 5 t ; > > 9 , 3 b H F D t u.(.u.T.U.X.x P =.q.A. Xd.wX;Xq v s k B B +.+.H H U.N.( x.m.&.+.N.%.$.n.3.j.5.fX;.v n S B m 0 ; : ",
"% w q T e * 5 0 t s v m V j D ;X{.h e B r @ % v v g n v m Y.u.v V J B ! H ,.,.$.`.E.n #.Q H B +.n.Q 2.J.~ *.cX{.a S V V J k < > ",
"k k 9 Y.>.  % r D M s v e n P.7.X X % b r 8 > s B ^ J B g o.~.v J J ' $.Q ! *.$.@.=X%.~ _ B B Q #.j.1.1.B }.nX[.t S V W H H t 5 ",
"k e t }.sXe > t b a N 5 z +XP o $ + 8 w 2 - e ! _ J B V l X.E.B v K n.+.W _ $._ Q K.8X#./ / Q | p.aX2X/.7XcXbX#Xj m V J J M b b ",
"k e B %XxXgXy.l v t t Y iX.XX % * - 9 * 1 - , H J m V V v ;.~.M M ~ b.@.Q $.#.$.) #.(.fX>X;X(.U.@X%XL.V.{.>XkXrXg M B S H m N V ",
"j J 4XxXzXlXhXQ.>.;.E.kXvXs.@ ; , - 9 , - 9 v H B m V B t H.W.~ :.@.v.n.x.&.) #._ E H fXcXXXu.N.J.n j.k.a a u.kXf.t H V m n b t ",
"T._.rXoX[.X.D ] ` T A.[.5XuXr.: $ > r ; = q H J V B V E ..@X@.) ) Q &.n.$.x.l.$.W B B  XI.Q ~ ,.&.%.v.&.! l q ;.qXo.a V n e F }.",
"X.l | t 5 a v t t q t 7 M ] L.9.; = s 3 $ J K V J n n R -XkXL.N.m.%.m.$./ O.n.&.( ( M V.3.&.v.j.l.b.v.R V ^ J t o.3XL t t r.7X$X",
"t > e r ; k D M b b M M a e o T ] # 4 3 N >.B B V m n M.'.V.OX X2XgXP./ j.#._ _ _ _ B C.V.Q m.U.#.) _ _ ( ^ V M t <.0X[.+X6Xw.9 ",
"B C j k , < m n b M m V B V V F !.b v J ' J m V V B H '.L.n H ) O.<X4XQ ) $.$._ ~ ~ O.OX>.Q v.b.%.~ k.) H n m N v q a.vXkXv e k ",
"S b m l ; > k m m m M n v V ( v Z.I.v.K n n V V m M ~ =X;.v Q k.B n (.3.~ #.$._ _ Q ;.6XB.) #.l.n.) $.$.B H ! ( L t F kXs.t V M ",
"n r 9 k = ; e m b b v a J m j e i.^.H n B J V V V v <.E.B b +.@.v M Z.`.Q #.$._ _ / o.fXm./ $.%.m.x.) $.Q n ^ l.,.+.5.6XS M m v ",
"b C 5 r 6 & y m M b v m V s y P |.*.v J J B J B M B P.!.a d -.@.H J _ U.%.) $.) / / >XcX-./ &.v.#.x.$.$.^ m L ~ @.O.r.T.g a v b ",
"b k t 7 b , y m N b b N b s e q.{.M B B J H B S M v (.K.p N $.l.H G B I.I.E Q n.!.6XxXvXtX%.~ $./ l.l.~ ~ B J M B v U w.j b b m ",
"M v m s A J t b N s b N b N q Y.i.M Y B ! J n H ! v P.m.d N b.m.@.K v W.2XB.$XhXwX_.L.E.<X6X~.3.~ ) x.,.n v ~ ! 7 5 G.C.5 s N v ",
"J ^ ! N B _ B a s b V d s e G +XG m ! J J L n H ! v !.N.a ( %.B +.@.M Q.cXkXuXZ.@.2./ E %.^.1XuX6X| B :.:.*.J t I Q.2X4X> 7 b M ",
"V J ! V d W :.V v V s 3 e v tX$X* t M B n H t n R M !.4.M @.H v j K #.5XbXY.R ~ M.,.~ +.&.&.~ $.+X6XC.B $.( e d.qXa.; 9.i.7 t N ",
"p b m D v a H B ^ q.b I C.S 8.T.9.A *.A.Q.OX2XT.:.B (.T.B l.B m V M K kX4X/ #.n.&.O.$._ %.2.x.B a >.pX=XM g !.]. .5 # % =.T.U p ",
"v t t t B L OX{.e.S.0XhXi.$ X q B.0.m T >.Y.#XrXaX6XcX:XO.M.J M Q Q S.tX@.Y ^ L H ^ _ &.$.O.-.B B v O.uXeXtX~.> 9 y ; $ * i.sXr.",
"yX|.}.s.XX'.3XE.k ; e.=X; @ 8 0 5 e - 5 M j t H =.d.:XkXU.2.m.( B n ;X-Xq v m n D n H :.^ -.H n n ! E O.bXjX3 @ 8 0 ; : 9 q OXkX",
"zXtX|.d.T &.~ n v ; > y # 6 i , % 1 b v ) H m M M a R qX@Xv J <.Q g }.C.l B n S B m ` ! -.@.L m m S M a eX.X> ; , 9 9 w b a D kX",
"X.j t p p B ^ B a s y 3 9 l - + - + > ! l.+.m m J +.l.M.4XY v +._ g E.V.v n n m b n J _ U b *.' n H J a |..Xa t t l m b N p Y $X",
"e M n j s m +.B s v ` k k w * - - - * V v.2.B v H ,.^ v ;XT.t $.J a !.E.t d t t y l ^ $.b V N V V B B g (.T.e b B H M N M l Y.J ",
"b m V n s b ^ J s t f.0.> # ; = * * q H ~ N.,.H L B v v i.;Xm Q ' a L.E.t r e e r 6 m $.n B S J J H V r T.T.9 v v J V ' v P Y.j ",
"v m J m v d J ' n q i.i.b 4 5 5 r b V S n H +.+.B V V v J rX .a ! v 5.a.t y y s r # s $.~ v S m m k > ; I XXg v b v _ / D {.m a ",
"m j j B m b t J ^ v !.J._ W b b M V N m m V M m B D m m D _.X.v B B X.|.n s m N 7 0 V Q ' m m 9 6 6 - # 7 dXa.9 a a a %.9Xy.9 d ",
"D e % 6 b V n v n @.6XX.R ~ b n S S B b k m B V V n J M l P.=.a b v J 6X..t N N k M b r V m 0 ; ; 4 8 # r.gXaXe.Z T Y 0X-Xn n M ",
"k w r $ 0 B n n j S 4XI M Q v n m n m s b b m N m m N a m 1XY t a a ^ pXs.9 v N b v b s ! r $ 6 4 ; # i.qXk w t.0.f.hXXXj _ ! n ",
"* - x - > a b b M L !.V d J m m b b v j y b t q y s r 7 I tXl t M a K hXwXq t V m b a V ! 5 ; : : # x gX;.. # 5 > ; OXi.q H B l ",
"= + w w ; t b b t T <.a f 0 9 s V b b v n s 4 * > > ; # g.zX=X<.;.>.+XlXzXwXT a n b M J V 3 % 4 ; # 5X+X; : ; 5 6 $ y |.*.~ J 6 ",
": - w 1 ; s b m t X.Z.v 6 % % 5 b n j b V y ; = ; - = b 7XH.G.p.y.T.XX@XsX%XZ.e.V t J m M r : ; # } 3X7 & 6 > 6 6 ; $ =.!.~ C u "
};
