/* XPM */
static char *d57ce8cda3e74f4df625c5f2ad1727c7CXFHWfoSEHzobgvN[] = {
/* columns rows colors chars-per-pixel */
"64 64 137 2 ",
"   c None",
".  c #165427",
"X  c #18592A",
"o  c #27662F",
"O  c #2D6B39",
"+  c #2F7334",
"@  c #27753B",
"#  c #267B3D",
"$  c #287C3D",
"%  c #7D432B",
"&  c #694434",
"*  c #6D4836",
"=  c #744834",
"-  c #7D513E",
";  c #3C7943",
":  c #775340",
">  c #7D5746",
",  c #8E5538",
"<  c #945336",
"1  c #91563B",
"2  c #995639",
"3  c #9C5A3C",
"4  c #9F6040",
"5  c #25813E",
"6  c #29803E",
"7  c #41B03F",
"8  c #55BD3D",
"9  c #65C83A",
"0  c #79D239",
"q  c #248C41",
"w  c #249343",
"e  c #2E9740",
"r  c #249B45",
"t  c #2CA347",
"y  c #2EA844",
"u  c #23A649",
"i  c #2BA74A",
"p  c #24AD4A",
"a  c #28A849",
"s  c #3DAF40",
"d  c #23B14C",
"f  c #2BB44D",
"g  c #38B545",
"h  c #31B54E",
"j  c #3BB54F",
"k  c #34B84E",
"l  c #31B650",
"z  c #39B551",
"x  c #35B950",
"c  c #3BBB51",
"v  c #51BF49",
"b  c #43BE53",
"n  c #49BA51",
"m  c #44BF5A",
"M  c #4CBF5B",
"N  c #58B952",
"B  c #6BBF56",
"V  c #46C054",
"C  c #4BC255",
"Z  c #4EC35C",
"A  c #54C557",
"S  c #5BC656",
"D  c #54C55A",
"F  c #58C758",
"G  c #5CC95B",
"H  c #65CD5A",
"J  c #69CF5C",
"K  c #72CB5B",
"L  c #6ED05D",
"P  c #75D35E",
"I  c #7AD35F",
"U  c #6BCE66",
"Y  c #74D262",
"T  c #7CD563",
"R  c #7DD66D",
"E  c #A8E61D",
"W  c #9FDE26",
"Q  c #93DE2A",
"!  c #82D53A",
"~  c #9EE22D",
"^  c #FFC20E",
"/  c #B3A052",
"(  c #81CB5C",
")  c #85D662",
"_  c #8FD762",
"`  c #83D962",
"'  c #8DDC64",
"]  c #85DA68",
"[  c #8BDB68",
"{  c #93DD65",
"}  c #92DE68",
"|  c #8CDC72",
" . c #8BDC79",
".. c #95D778",
"X. c #92DD7A",
"o. c #9BDB7A",
"O. c #96E166",
"+. c #9AE266",
"@. c #96E16A",
"#. c #9DE368",
"$. c #97E171",
"%. c #99E273",
"&. c #A2E571",
"*. c #FACA46",
"=. c #F9CC4B",
"-. c #F9CE52",
";. c #F9D056",
":. c #F8D15C",
">. c #DBC670",
",. c #F8D364",
"<. c #F7D66F",
"1. c #F8D56C",
"2. c #F7D670",
"3. c #F7D974",
"4. c #F8D971",
"5. c #F7DB7D",
"6. c #F8DA78",
"7. c #9CD281",
"8. c #A0DD85",
"9. c #A8DF90",
"0. c #AAE892",
"q. c #B9EF9A",
"w. c #B9EEA5",
"e. c #BEF0A3",
"r. c #F6DC83",
"t. c #F6DE8C",
"y. c #EDDA95",
"u. c #F6DF90",
"i. c #F6E08E",
"p. c #F5E194",
"a. c #F5E49B",
"s. c #C4EDAC",
"d. c #C6F3AE",
"f. c #C6F4B0",
"g. c #CBF6B3",
"h. c #D3F9BC",
"j. c #FFF9BD",
/* pixels */
"                    . . . . . . . . . . .                                                                                       ",
"                  . h.h.#.h.h.g.f.g.h.d . .                                                                                     ",
"              d h.h.h.#.+.O.$. . .[ @.+.#.. .                                                                                   ",
"              h.&.g.#.} ` T x m Z F L ` #.#.#..                                                                                 ",
"            h.g.q.%.} Y A c f d f c C H ' #.#.#..                                                                               ",
"          d h.#.$.] l f f d d d d d k x f O.#.#..                 . . . . . . h.h.h.                                            ",
"        d d #.#.@.l d d d d d d d d d d k C ' #.#..         . . . . #.#.#.#.g.h.h.h.h.h.@                                       ",
"        . #.#.d d d @ @ @ @ d d d d d f k A T +.#..       . . d #.#.#.#.@.[ Y ' } @.g.h.h.d @                                   ",
"      h.h.#.d @ @ @ @ . . @ @ @ @ @ d d l C P O.#..     . . #.+.@.O.' ' P L H J P Y R Z w.f.d @ d                               ",
"      . #.@ @ @ . . . d . . . . . @ @ d d V P O.#..   . . #.O.` P P L H A C V V V C Z U R  .0.@.#.. .                           ",
"    . #.@ @ . .                 . . @ @ d f f #.#.. . . #.#.' C C C V V c k d f f f x V D U R | e.h.. .                         ",
"    . @ . .                         . @ @ d d d . . . #.#.d d f f d f f d d d d d d d f l b G R @.h.#..                         ",
"    . . .                       . . . . @ @ @ @ . d #.#.+.d d d @ @ @ @ @ @ @ @ @ @ @ @ d d x c #.#.#.. .                       ",
"  . . .                 @ @ . . . . . . . . . . #.. #.d d @ @ @ @ . . . . . . @ @ @ @ @ @ @ d d d d #.. .                       ",
"  . .               . . h.h.h.h.h.h.h.+.#.#.. . #.. d d d . . . .                   . . . @ @ @ @ @ @ .                         ",
"                . h.h.h.h.#.+.+.+.#.d d d d d . . #.d d . . . . . . . h.h.h.h.h.h.        . . . @ @ @ .                         ",
"            . h.h.h.#.+.#.' Y P ` O.d d d d . . . . . . #.#.#.#.#.+.+.+.#.#.#.h.h..             . . . .                         ",
"          . h.h.#.#.O.` f b C C b f d d d @ . . . @ @ @ #.d #.#.O.' ' O.O.#.#.#.h.h.@               . .                         ",
"        . . h.#.+.T b c k f f h p d @ @ @ @ . . @ . @ d @ @ d d c L L F P ` { #.#.#.h.@                                         ",
"      . . { +.' Y C x f d d d p @ @ @ @ @ @ . . @ . . @ @ @ @ @ f c F V C A H T O.#.h.h.@                                       ",
"      . { { ) I C c f d d d d d @ @ @ + . . . . . . . . @ @ @ @ d d f h x c V C V ` #.h.h.@                                     ",
"    . { _ ) P A x d d d d d d @ @ @ . . . . . +.& & & > . @ @ @ d d d d d f f h l V T +.h..                                     ",
"    . { ` P A h d d d d d d @ @ @ @ . . #.+.' ' d . > & & . . @ @ @ @ d d d d d p c F T _ .                                     ",
"  . o ( I A f p d d d d @ @ @ @ @ . h.h.W 0 C j p . > & & & . . @ @ @ @ @ d d d p f C S B + .                                   ",
"  . { _ I x d d d d d @ @ @ @ . . . h.+.! 8 7 y 6 . & & 3 3 * . . . @ @ @ @ d @ @ d k n N B {                                   ",
"  . #.{ f d d d d d @ @ @ @ @ . . #.E ~ 9 7 5 5 # . & 3 3 3 2 = %   . . @ @ @ @ @ @ a j n K { .                                 ",
". . #.d @ @ @ @ d @ @ @ @ @ . . +.+.E d g y 5 @ # . & 3 3 3 2 < %     . . @ @ @ @ @ $ a f h #.#..                               ",
". #.@ @ d @ @ @ @ @ @ . .   . o W E E d p u # @ + . & 3 3 3 2 < % &       . . @ @ @ @ # @ @ @ @ @ .                             ",
". @ @ @ @ @ . . . . . .     ; 7...k d d d 5 5 @ @ .   & 3 3 < < % 3           . . X @ @ @ @ @ @ @ . . .                         ",
". . . . . . . . .         O 9.o.` k d d p u 5 @ . .   = 2 < < % % 3 &               . . . . . . .                               ",
". . .                     s.8.) S d p d u 5 5 # .     = 2 2 % % % 3 3 &                                                         ",
"                        . d.X.G h d u 5 5 5 # . .     & 2 4 % % 3 3 3 -                                                         ",
"                        . g.R c d u r q ; @ . .       & 3 3 % 3 3 3 < < %                                                       ",
"                      . h.} Z z p r q # @ . .         & 3 3 3 3 3 3 < % %                                                       ",
"                      . #.' z a r w # # . .           3 & 3 3 3 3 3 < % %                                                       ",
"                    . . #.d f 5 # # # . .             3 * 3 3 3 3 < < % 3 &                                                     ",
"                    . #.#.d @ @ . . . .               3 & 3 3 3 < < % % 3 &                                                     ",
"                    . #.d . . . .                     3 & 3 < < < % % % 3 *                                                     ",
"                    . . . .                           3 & 3 3 % % % % 3 < < %                                                   ",
"                                                      & 3 3 3 % % % 3 3 < % %                                                   ",
"                                                    & 3 3 3 3 % 3 3 3 < < % %                                                   ",
"                                                    & 3 3 3 3 3 3 3 < < % % < &                                                 ",
"                                                    & 3 3 3 3 3 3 < < % % % 2 &                                                 ",
"                                                  & 3 3 3 3 3 3 < < % % , 2 2 < %                                               ",
"                                                  & 3 3 3 3 3 2 3 % % % 3 3 < % %                                               ",
"                                                  & 3 3 3 3 3 3 % % % 3 3 < 3 % %                                               ",
"                                                & 3 3 3 3 3 3 3 % 3 3 3 < < % % 3 &                                             ",
"                                                & 3 3 3 3 3 3 3 3 < < < < % % > 3 &                                             ",
"                                              & 3 3 3 3 3 3 3 3 3 2 % % % % = > , *                                             ",
"                                              & 3 3 3 3 3 3 3 3 3 3 % % % % 3 3 > 3 &                                           ",
"                                            & 3 3 3 3 3 3 3 3 3 3 3 % , , , 1 3 > > &                                           ",
"                                          & & & 3 * 4 4 3 3 3 3 3 3 3 3 3 3 : : : & &                                           ",
"                                        >.>.a.a.y.y.y.y.j.j.j.j.j.j.j.j.j.j.j.j.j.j.j./ /                                       ",
"                                    / / a.a.a.a.a.a.y.j.j.j.j.j.j.j.j.j.j.j.j.j.j.j.j.j.j./ / /                                 ",
"                              / / / a.a.a.a.a.a.a.a.a.a.a.a.a.a.a.a.a.a.a.a.a.a.j.a.j.j.j.j.j.j.j./ / /                         ",
"                        / / / a.a.a.a.a.a.a.p.p.p.a.a.a.a.a.a.a.a.a.a.a.a.a.a.a.a.a.a.a.a.j.j.j.j.j.j.j./ /                     ",
"                  / / / *.*.*.*.*.*.=.=.-.-.;.5.r.i.i.p.p.p.i.i.p.p.a.a.a.a.a.a.a.a.a.a.a.j.a.a.a.a.j.j.j.j.j./                 ",
"              / / *.*.*.*.*.*.*.*.*.*.=.=.=.-.:.,.4.5.5.5.5.5.5.r.r.t.p.p.a.a.a.a.a.a.a.a.a.a.a.a.a.a.a.a.j.j.j./ /             ",
"          / / *.*.*.*.*.*.*.*.*.*.*.*.*.*.*.*.-.;.:.:.,.,.,.,.1.<.6.5.r.i.i.p.p.a.a.a.a.a.a.a.a.j.j.a.a.a.a.a.j.j.j./ /         ",
"        / *.*.*.*.*.*.*.*.*.*.*.*.*.*.*.*.*.*.=.=.-.=.-.-.-.-.;.:.,.1.2.5.r.i.p.p.a.a.a.a.a.a.j.j.j.j.j.j.j.j.j.j.j.j.j.*.*.    ",
"  / / / *.*.*.*.*.*.*.*.*.*.*.*.*.*.*.*.*.*.*.*.*.*.*.=.*.*.*.=.-.-.;.:.,.2.5.t.p.p.p.p.p.p.u.p.a.p.a.a.a.a.a.a.a.a.a.j.j.*.*.*.",
"/ *.*.*.*.*.*.*.*.*.*.*.*.*.*.*.*.*.*.*.*.*.*.*.*.*.*.*.*.*.*.*.*.*.=.-.-.:.<.5.r.t.t.t.t.t.t.t.a.a.p.a.a.a.a.a.a.a.a.a.j.j.j.*.",
"*.*.*.*.*.*.*.*.*.*.*.*.*.*.*.*.*.*.*.*.*.*.*.*.*.*.*.*.*.*.*.*.*.*.*.*.=.=.:.<.6.5.5.5.5.r.r.t.t.p.p.a.a.a.a.a.a.a.a.a.a.j.j.*.",
"*.*.*.*.*.*.*.*.*.*.*.^ ^ *.*.*.*.*.*.*.*.*.*.*.*.*.*.*.*.*.*.*.*.*.*.*.*.=.-.:.,.1.1.4.6.5.5.r.t.t.p.a.a.a.a.a.a.a.a.a.j.j.j.j."
};
